<mxfile host="65bd71144e">
    <diagram id="hS_IC6GlA3OHUTnPdU97" name="Page-1">
        <mxGraphModel dx="2016" dy="1843" grid="1" gridSize="10" guides="1" tooltips="1" connect="1" arrows="1" fold="1" page="1" pageScale="1" pageWidth="827" pageHeight="1169" math="0" shadow="0">
            <root>
                <mxCell id="0"/>
                <mxCell id="1" parent="0"/>
                <mxCell id="DO3Im2GmNpO-MOehDY63-6" value="" style="rounded=0;whiteSpace=wrap;html=1;" parent="1" vertex="1">
                    <mxGeometry x="-440" y="-110" width="1240" height="1440" as="geometry"/>
                </mxCell>
                <mxCell id="6WaH9IYS2Wj16okcBvW4-18" value="" style="rounded=0;whiteSpace=wrap;html=1;dashed=1;fillColor=none;fontColor=#232F3E;strokeColor=#232F3E;" parent="1" vertex="1">
                    <mxGeometry x="120" y="680" width="640" height="630" as="geometry"/>
                </mxCell>
                <mxCell id="HToY33xN73mvwbbQRyyy-34" value="" style="rounded=0;whiteSpace=wrap;html=1;dashed=1;fillColor=none;fontColor=#232F3E;strokeColor=#232F3E;" parent="1" vertex="1">
                    <mxGeometry x="120" y="214" width="640" height="406" as="geometry"/>
                </mxCell>
                <mxCell id="HToY33xN73mvwbbQRyyy-35" value="Product Summary" style="text;html=1;align=center;verticalAlign=middle;whiteSpace=wrap;rounded=0;fontStyle=1;fontSize=15;fontColor=#232F3E;strokeColor=none;" parent="1" vertex="1">
                    <mxGeometry x="130" y="182" width="630" height="30" as="geometry"/>
                </mxCell>
                <mxCell id="HToY33xN73mvwbbQRyyy-32" value="" style="rounded=0;whiteSpace=wrap;html=1;dashed=1;fillColor=none;fontColor=#232F3E;strokeColor=#232F3E;" parent="1" vertex="1">
                    <mxGeometry x="120" y="-58" width="640" height="218" as="geometry"/>
                </mxCell>
                <mxCell id="HToY33xN73mvwbbQRyyy-30" value="" style="rounded=0;whiteSpace=wrap;html=1;dashed=1;fillColor=none;fontColor=#232F3E;strokeColor=#232F3E;" parent="1" vertex="1">
                    <mxGeometry x="-317" y="-58" width="418" height="678" as="geometry"/>
                </mxCell>
                <mxCell id="HToY33xN73mvwbbQRyyy-31" value="Frontend and Auth" style="text;html=1;align=center;verticalAlign=middle;whiteSpace=wrap;rounded=0;fontStyle=1;fontSize=15;fontColor=#232F3E;strokeColor=none;" parent="1" vertex="1">
                    <mxGeometry x="-317" y="-90" width="410" height="30" as="geometry"/>
                </mxCell>
                <mxCell id="-1yFln00-OzJVzPrYYqR-6" value="" style="edgeStyle=orthogonalEdgeStyle;rounded=0;orthogonalLoop=1;jettySize=auto;html=1;flowAnimation=1;fontColor=#232F3E;strokeColor=#232F3E;" parent="1" target="HToY33xN73mvwbbQRyyy-10" edge="1">
                    <mxGeometry relative="1" as="geometry">
                        <Array as="points">
                            <mxPoint x="150" y="170"/>
                            <mxPoint x="150" y="77"/>
                        </Array>
                        <mxPoint x="-80" y="170" as="sourcePoint"/>
                        <mxPoint x="132" y="140" as="targetPoint"/>
                    </mxGeometry>
                </mxCell>
                <mxCell id="-1yFln00-OzJVzPrYYqR-14" value="" style="edgeStyle=orthogonalEdgeStyle;rounded=0;orthogonalLoop=1;jettySize=auto;html=1;flowAnimation=1;fontColor=#232F3E;strokeColor=#232F3E;" parent="1" source="HToY33xN73mvwbbQRyyy-6" target="HToY33xN73mvwbbQRyyy-12" edge="1">
                    <mxGeometry relative="1" as="geometry">
                        <Array as="points">
                            <mxPoint x="150" y="170"/>
                            <mxPoint x="150" y="380"/>
                        </Array>
                        <mxPoint x="-5" y="170" as="sourcePoint"/>
                        <mxPoint x="190" y="390.03999999999996" as="targetPoint"/>
                    </mxGeometry>
                </mxCell>
                <mxCell id="-1yFln00-OzJVzPrYYqR-24" value="" style="edgeStyle=orthogonalEdgeStyle;rounded=0;orthogonalLoop=1;jettySize=auto;html=1;entryX=0;entryY=0.5;entryDx=0;entryDy=0;entryPerimeter=0;flowAnimation=1;fontColor=#232F3E;strokeColor=#232F3E;" parent="1" source="HToY33xN73mvwbbQRyyy-6" target="HToY33xN73mvwbbQRyyy-11" edge="1">
                    <mxGeometry relative="1" as="geometry">
                        <Array as="points">
                            <mxPoint x="150" y="170"/>
                            <mxPoint x="150" y="260"/>
                            <mxPoint x="180" y="260"/>
                        </Array>
                        <mxPoint x="92" y="170" as="sourcePoint"/>
                        <mxPoint x="132" y="270" as="targetPoint"/>
                    </mxGeometry>
                </mxCell>
                <mxCell id="-1yFln00-OzJVzPrYYqR-8" value="" style="edgeStyle=orthogonalEdgeStyle;rounded=0;orthogonalLoop=1;jettySize=auto;html=1;flowAnimation=1;entryX=0;entryY=0.5;entryDx=0;entryDy=0;entryPerimeter=0;exitX=1;exitY=0.75;exitDx=0;exitDy=0;exitPerimeter=0;fontColor=#232F3E;strokeColor=#232F3E;" parent="1" source="HToY33xN73mvwbbQRyyy-10" target="3" edge="1">
                    <mxGeometry relative="1" as="geometry">
                        <mxPoint x="468" y="77" as="sourcePoint"/>
                        <mxPoint x="430" y="129" as="targetPoint"/>
                    </mxGeometry>
                </mxCell>
                <mxCell id="-1yFln00-OzJVzPrYYqR-7" value="" style="edgeStyle=orthogonalEdgeStyle;rounded=0;orthogonalLoop=1;jettySize=auto;html=1;flowAnimation=1;fontColor=#232F3E;strokeColor=#232F3E;" parent="1" source="HToY33xN73mvwbbQRyyy-10" target="2" edge="1">
                    <mxGeometry relative="1" as="geometry">
                        <mxPoint x="270" y="140.0400000000002" as="sourcePoint"/>
                        <mxPoint x="390" y="77" as="targetPoint"/>
                        <Array as="points">
                            <mxPoint x="440" y="77"/>
                        </Array>
                    </mxGeometry>
                </mxCell>
                <mxCell id="-1yFln00-OzJVzPrYYqR-15" value="" style="edgeStyle=orthogonalEdgeStyle;rounded=0;orthogonalLoop=1;jettySize=auto;html=1;flowAnimation=1;fontColor=#232F3E;strokeColor=#232F3E;" parent="1" source="HToY33xN73mvwbbQRyyy-12" target="-1yFln00-OzJVzPrYYqR-9" edge="1">
                    <mxGeometry relative="1" as="geometry">
                        <mxPoint x="270" y="382.03999999999996" as="sourcePoint"/>
                    </mxGeometry>
                </mxCell>
                <mxCell id="-1yFln00-OzJVzPrYYqR-21" style="edgeStyle=orthogonalEdgeStyle;rounded=0;orthogonalLoop=1;jettySize=auto;html=1;exitX=1;exitY=0.5;exitDx=0;exitDy=0;exitPerimeter=0;flowAnimation=1;entryX=0;entryY=0.75;entryDx=0;entryDy=0;fontColor=#232F3E;strokeColor=#232F3E;" parent="1" source="-1yFln00-OzJVzPrYYqR-9" target="HToY33xN73mvwbbQRyyy-16" edge="1">
                    <mxGeometry relative="1" as="geometry">
                        <mxPoint x="558" y="287.03999999999996" as="targetPoint"/>
                        <Array as="points">
                            <mxPoint x="410" y="419"/>
                            <mxPoint x="410" y="332"/>
                        </Array>
                    </mxGeometry>
                </mxCell>
                <mxCell id="-1yFln00-OzJVzPrYYqR-22" style="edgeStyle=orthogonalEdgeStyle;rounded=0;orthogonalLoop=1;jettySize=auto;html=1;exitX=1;exitY=0.5;exitDx=0;exitDy=0;exitPerimeter=0;flowAnimation=1;fontColor=#232F3E;strokeColor=#232F3E;" parent="1" source="-1yFln00-OzJVzPrYYqR-9" target="HToY33xN73mvwbbQRyyy-18" edge="1">
                    <mxGeometry relative="1" as="geometry">
                        <mxPoint x="510" y="387.03999999999996" as="targetPoint"/>
                        <Array as="points">
                            <mxPoint x="378" y="420"/>
                            <mxPoint x="410" y="420"/>
                            <mxPoint x="410" y="467"/>
                        </Array>
                    </mxGeometry>
                </mxCell>
                <mxCell id="6WaH9IYS2Wj16okcBvW4-21" style="edgeStyle=orthogonalEdgeStyle;rounded=0;orthogonalLoop=1;jettySize=auto;html=1;exitX=1;exitY=0.5;exitDx=0;exitDy=0;exitPerimeter=0;flowAnimation=1;fontColor=#232F3E;strokeColor=#232F3E;" parent="1" source="-1yFln00-OzJVzPrYYqR-9" target="6WaH9IYS2Wj16okcBvW4-20" edge="1">
                    <mxGeometry relative="1" as="geometry">
                        <Array as="points">
                            <mxPoint x="590" y="419"/>
                            <mxPoint x="590" y="489"/>
                            <mxPoint x="659" y="489"/>
                        </Array>
                    </mxGeometry>
                </mxCell>
                <mxCell id="-1yFln00-OzJVzPrYYqR-9" value="Bedrock&lt;br&gt;" style="sketch=0;points=[[0,0,0],[0.25,0,0],[0.5,0,0],[0.75,0,0],[1,0,0],[0,1,0],[0.25,1,0],[0.5,1,0],[0.75,1,0],[1,1,0],[0,0.25,0],[0,0.5,0],[0,0.75,0],[1,0.25,0],[1,0.5,0],[1,0.75,0]];outlineConnect=0;fontColor=#232F3E;fillColor=#01A88D;strokeColor=#232F3E;dashed=0;verticalLabelPosition=bottom;verticalAlign=top;align=center;html=1;fontSize=12;fontStyle=1;aspect=fixed;shape=mxgraph.aws4.resourceIcon;resIcon=mxgraph.aws4.bedrock;" parent="1" vertex="1">
                    <mxGeometry x="300" y="380" width="78" height="78" as="geometry"/>
                </mxCell>
                <mxCell id="-1yFln00-OzJVzPrYYqR-13" value="IAM" style="sketch=0;outlineConnect=0;fontColor=#232F3E;gradientColor=none;fillColor=#DD344C;strokeColor=#232F3E;dashed=0;verticalLabelPosition=bottom;verticalAlign=top;align=center;html=1;fontSize=12;fontStyle=1;aspect=fixed;pointerEvents=1;shape=mxgraph.aws4.role;" parent="1" vertex="1">
                    <mxGeometry x="-5" y="182" width="78" height="44" as="geometry"/>
                </mxCell>
                <mxCell id="-1yFln00-OzJVzPrYYqR-32" value="" style="edgeStyle=orthogonalEdgeStyle;rounded=0;orthogonalLoop=1;jettySize=auto;html=1;flowAnimation=1;fontColor=#232F3E;strokeColor=#232F3E;" parent="1" source="HToY33xN73mvwbbQRyyy-11" target="-1yFln00-OzJVzPrYYqR-27" edge="1">
                    <mxGeometry relative="1" as="geometry">
                        <Array as="points"/>
                        <mxPoint x="270" y="262" as="sourcePoint"/>
                    </mxGeometry>
                </mxCell>
                <mxCell id="-1yFln00-OzJVzPrYYqR-30" value="" style="edgeStyle=orthogonalEdgeStyle;rounded=0;orthogonalLoop=1;jettySize=auto;html=1;flowAnimation=1;entryX=0;entryY=0.25;entryDx=0;entryDy=0;fontColor=#232F3E;strokeColor=#232F3E;" parent="1" source="-1yFln00-OzJVzPrYYqR-27" target="HToY33xN73mvwbbQRyyy-16" edge="1">
                    <mxGeometry relative="1" as="geometry">
                        <mxPoint x="510" y="207" as="targetPoint"/>
                        <Array as="points">
                            <mxPoint x="410" y="261"/>
                            <mxPoint x="410" y="302"/>
                        </Array>
                    </mxGeometry>
                </mxCell>
                <mxCell id="HToY33xN73mvwbbQRyyy-26" style="edgeStyle=orthogonalEdgeStyle;rounded=0;orthogonalLoop=1;jettySize=auto;html=1;exitX=1;exitY=0.5;exitDx=0;exitDy=0;exitPerimeter=0;flowAnimation=1;entryX=0;entryY=0.5;entryDx=0;entryDy=0;entryPerimeter=0;fontColor=#232F3E;strokeColor=#232F3E;" parent="1" source="-1yFln00-OzJVzPrYYqR-27" target="4" edge="1">
                    <mxGeometry relative="1" as="geometry">
                        <mxPoint x="900" y="261" as="targetPoint"/>
                    </mxGeometry>
                </mxCell>
                <mxCell id="-1yFln00-OzJVzPrYYqR-27" value="Bedrock" style="sketch=0;points=[[0,0,0],[0.25,0,0],[0.5,0,0],[0.75,0,0],[1,0,0],[0,1,0],[0.25,1,0],[0.5,1,0],[0.75,1,0],[1,1,0],[0,0.25,0],[0,0.5,0],[0,0.75,0],[1,0.25,0],[1,0.5,0],[1,0.75,0]];outlineConnect=0;fontColor=#232F3E;fillColor=#01A88D;strokeColor=#232F3E;dashed=0;verticalLabelPosition=bottom;verticalAlign=top;align=center;html=1;fontSize=12;fontStyle=1;aspect=fixed;shape=mxgraph.aws4.resourceIcon;resIcon=mxgraph.aws4.bedrock;" parent="1" vertex="1">
                    <mxGeometry x="300" y="222" width="78" height="78" as="geometry"/>
                </mxCell>
                <mxCell id="-1yFln00-OzJVzPrYYqR-37" value="Check JWT Token against Cognito&lt;br&gt;&amp;nbsp;&amp;amp;&lt;br&gt;Sign Reqest to Lambda URL" style="rounded=0;whiteSpace=wrap;html=1;fontColor=#232F3E;strokeColor=#232F3E;" parent="1" vertex="1">
                    <mxGeometry x="-204.5" y="420" width="204.5" height="60" as="geometry"/>
                </mxCell>
                <mxCell id="-1yFln00-OzJVzPrYYqR-41" value="" style="edgeStyle=orthogonalEdgeStyle;rounded=0;orthogonalLoop=1;jettySize=auto;html=1;flowAnimation=1;fontColor=#232F3E;strokeColor=#232F3E;" parent="1" source="HToY33xN73mvwbbQRyyy-6" target="HToY33xN73mvwbbQRyyy-7" edge="1">
                    <mxGeometry relative="1" as="geometry">
                        <mxPoint x="-164" y="250" as="sourcePoint"/>
                        <mxPoint x="-164.02325581395348" y="290" as="targetPoint"/>
                        <Array as="points">
                            <mxPoint x="40" y="150"/>
                        </Array>
                    </mxGeometry>
                </mxCell>
                <mxCell id="HToY33xN73mvwbbQRyyy-4" value="" style="edgeStyle=orthogonalEdgeStyle;rounded=0;orthogonalLoop=1;jettySize=auto;html=1;flowAnimation=1;fontColor=#232F3E;strokeColor=#232F3E;" parent="1" source="HToY33xN73mvwbbQRyyy-1" target="HToY33xN73mvwbbQRyyy-3" edge="1">
                    <mxGeometry relative="1" as="geometry"/>
                </mxCell>
                <mxCell id="HToY33xN73mvwbbQRyyy-1" value="Consumers" style="sketch=0;pointerEvents=1;shadow=0;dashed=0;html=1;strokeColor=#232F3E;labelPosition=center;verticalLabelPosition=bottom;verticalAlign=top;align=center;fillColor=#505050;shape=mxgraph.mscae.intune.user_group;fontStyle=1;fontColor=#232F3E;" parent="1" vertex="1">
                    <mxGeometry x="-407" y="158" width="50" height="37" as="geometry"/>
                </mxCell>
                <mxCell id="HToY33xN73mvwbbQRyyy-5" value="" style="edgeStyle=orthogonalEdgeStyle;rounded=0;orthogonalLoop=1;jettySize=auto;html=1;flowAnimation=1;fontColor=#232F3E;strokeColor=#232F3E;" parent="1" source="HToY33xN73mvwbbQRyyy-3" target="HToY33xN73mvwbbQRyyy-6" edge="1">
                    <mxGeometry relative="1" as="geometry">
                        <mxPoint x="-204" y="176.51162790697686" as="targetPoint"/>
                        <Array as="points">
                            <mxPoint x="-214" y="177"/>
                            <mxPoint x="-123" y="177"/>
                        </Array>
                    </mxGeometry>
                </mxCell>
                <mxCell id="HToY33xN73mvwbbQRyyy-3" value="Scanning&lt;br&gt;Product" style="sketch=0;pointerEvents=1;shadow=0;dashed=0;html=1;strokeColor=#232F3E;fillColor=#505050;labelPosition=center;verticalLabelPosition=bottom;verticalAlign=top;outlineConnect=0;align=center;shape=mxgraph.office.devices.cell_phone_generic;fontStyle=1;fontColor=#232F3E;" parent="1" vertex="1">
                    <mxGeometry x="-294" y="142" width="40" height="69" as="geometry"/>
                </mxCell>
                <mxCell id="HToY33xN73mvwbbQRyyy-6" value="Amazon&amp;nbsp;&lt;br&gt;Cloudfront" style="sketch=0;points=[[0,0,0],[0.25,0,0],[0.5,0,0],[0.75,0,0],[1,0,0],[0,1,0],[0.25,1,0],[0.5,1,0],[0.75,1,0],[1,1,0],[0,0.25,0],[0,0.5,0],[0,0.75,0],[1,0.25,0],[1,0.5,0],[1,0.75,0]];outlineConnect=0;fontColor=#232F3E;fillColor=#8C4FFF;strokeColor=#232F3E;dashed=0;verticalLabelPosition=bottom;verticalAlign=top;align=center;html=1;fontSize=12;fontStyle=1;aspect=fixed;shape=mxgraph.aws4.resourceIcon;resIcon=mxgraph.aws4.cloudfront;" parent="1" vertex="1">
                    <mxGeometry x="-157" y="133" width="78" height="78" as="geometry"/>
                </mxCell>
                <mxCell id="HToY33xN73mvwbbQRyyy-7" value="Amazon S3&lt;div&gt;Static Website&lt;/div&gt;" style="sketch=0;points=[[0,0,0],[0.25,0,0],[0.5,0,0],[0.75,0,0],[1,0,0],[0,1,0],[0.25,1,0],[0.5,1,0],[0.75,1,0],[1,1,0],[0,0.25,0],[0,0.5,0],[0,0.75,0],[1,0.25,0],[1,0.5,0],[1,0.75,0]];outlineConnect=0;fontColor=#232F3E;fillColor=#7AA116;strokeColor=#232F3E;dashed=0;verticalLabelPosition=bottom;verticalAlign=top;align=center;html=1;fontSize=12;fontStyle=1;aspect=fixed;shape=mxgraph.aws4.resourceIcon;resIcon=mxgraph.aws4.s3;" parent="1" vertex="1">
                    <mxGeometry y="-19" width="78" height="78" as="geometry"/>
                </mxCell>
                <mxCell id="HToY33xN73mvwbbQRyyy-8" value="Amazon&lt;br&gt;Cognito" style="sketch=0;points=[[0,0,0],[0.25,0,0],[0.5,0,0],[0.75,0,0],[1,0,0],[0,1,0],[0.25,1,0],[0.5,1,0],[0.75,1,0],[1,1,0],[0,0.25,0],[0,0.5,0],[0,0.75,0],[1,0.25,0],[1,0.5,0],[1,0.75,0]];outlineConnect=0;fontColor=#232F3E;fillColor=#DD344C;strokeColor=#232F3E;dashed=0;verticalLabelPosition=bottom;verticalAlign=top;align=center;html=1;fontSize=12;fontStyle=1;aspect=fixed;shape=mxgraph.aws4.resourceIcon;resIcon=mxgraph.aws4.cognito;" parent="1" vertex="1">
                    <mxGeometry x="1" y="320" width="78" height="78" as="geometry"/>
                </mxCell>
                <mxCell id="6WaH9IYS2Wj16okcBvW4-17" style="edgeStyle=orthogonalEdgeStyle;rounded=0;orthogonalLoop=1;jettySize=auto;html=1;flowAnimation=1;fontColor=#232F3E;strokeColor=#232F3E;" parent="1" source="HToY33xN73mvwbbQRyyy-6" target="6WaH9IYS2Wj16okcBvW4-6" edge="1">
                    <mxGeometry relative="1" as="geometry">
                        <mxPoint x="-150" y="172" as="sourcePoint"/>
                        <Array as="points">
                            <mxPoint x="150" y="170"/>
                            <mxPoint x="150" y="790"/>
                        </Array>
                    </mxGeometry>
                </mxCell>
                <mxCell id="HToY33xN73mvwbbQRyyy-10" value="AWS Lambda URL&lt;br&gt;Fetch Product" style="sketch=0;points=[[0,0,0],[0.25,0,0],[0.5,0,0],[0.75,0,0],[1,0,0],[0,1,0],[0.25,1,0],[0.5,1,0],[0.75,1,0],[1,1,0],[0,0.25,0],[0,0.5,0],[0,0.75,0],[1,0.25,0],[1,0.5,0],[1,0.75,0]];outlineConnect=0;fontColor=#232F3E;fillColor=#ED7100;strokeColor=#232F3E;dashed=0;verticalLabelPosition=bottom;verticalAlign=top;align=center;html=1;fontSize=12;fontStyle=1;aspect=fixed;shape=mxgraph.aws4.resourceIcon;resIcon=mxgraph.aws4.lambda;" parent="1" vertex="1">
                    <mxGeometry x="180" y="38" width="78" height="78" as="geometry"/>
                </mxCell>
                <mxCell id="HToY33xN73mvwbbQRyyy-11" value="AWS Lambeda URL&lt;br&gt;Generate Product &lt;br&gt;Summary" style="sketch=0;points=[[0,0,0],[0.25,0,0],[0.5,0,0],[0.75,0,0],[1,0,0],[0,1,0],[0.25,1,0],[0.5,1,0],[0.75,1,0],[1,1,0],[0,0.25,0],[0,0.5,0],[0,0.75,0],[1,0.25,0],[1,0.5,0],[1,0.75,0]];outlineConnect=0;fontColor=#232F3E;fillColor=#ED7100;strokeColor=#232F3E;dashed=0;verticalLabelPosition=bottom;verticalAlign=top;align=center;html=1;fontSize=12;fontStyle=1;aspect=fixed;shape=mxgraph.aws4.resourceIcon;resIcon=mxgraph.aws4.lambda;" parent="1" vertex="1">
                    <mxGeometry x="180" y="222" width="78" height="78" as="geometry"/>
                </mxCell>
                <mxCell id="HToY33xN73mvwbbQRyyy-12" value="AWS Lambda URL&lt;br&gt;Generate Product &lt;br&gt;Image" style="sketch=0;points=[[0,0,0],[0.25,0,0],[0.5,0,0],[0.75,0,0],[1,0,0],[0,1,0],[0.25,1,0],[0.5,1,0],[0.75,1,0],[1,1,0],[0,0.25,0],[0,0.5,0],[0,0.75,0],[1,0.25,0],[1,0.5,0],[1,0.75,0]];outlineConnect=0;fontColor=#232F3E;fillColor=#ED7100;strokeColor=#232F3E;dashed=0;verticalLabelPosition=bottom;verticalAlign=top;align=center;html=1;fontSize=12;fontStyle=1;aspect=fixed;shape=mxgraph.aws4.resourceIcon;resIcon=mxgraph.aws4.lambda;" parent="1" vertex="1">
                    <mxGeometry x="180" y="380" width="78" height="78" as="geometry"/>
                </mxCell>
                <mxCell id="HToY33xN73mvwbbQRyyy-16" value="Claude  3 Haiku" style="shape=image;verticalLabelPosition=bottom;labelBackgroundColor=none;verticalAlign=top;aspect=fixed;imageAspect=0;image=data:image/png,iVBORw0KGgoAAAANSUhEUgAAADwAAAA8EAYAAABqbAUxAAAMP2lDQ1BJQ0MgUHJvZmlsZQAASImVVwdYU8kWnluSkEBoAQSkhN4EESkBpITQQu8INkISIJQQA0HFjiwquBZULGBDV0UUrIDYETuLYu8LKgrKuliwK29SQNd95Xvn++be//5z5j9nzp1bBgC1kxyRKBtVByBHmC+OCfKjj09KppN6AAJQoA2cgBaHmydiRkWFAWhD57/bu5vQG9o1e6nWP/v/q2nw+HlcAJAoiFN5edwciA8CgFdxReJ8AIhS3mxavkiKYQNaYpggxIukOF2Oq6Q4VY73ynziYlgQtwKgpMLhiNMBUL0CeXoBNx1qqPZD7CjkCYQAqNEh9s7JyeVBnAKxNfQRQSzVZ6T+oJP+N83UYU0OJ30Yy+ciMyV/QZ4omzPj/yzH/7acbMlQDEvYVDLEwTHSOcO63c7KDZViFYj7hKkRkRBrQvxBwJP5Q4xSMiTB8XJ/1ICbx4I1AzoQO/I4/qEQG0AcKMyOCFPwqWmCQDbEcIWg0wX57DiIdSFexM8LiFX4bBbnxihioQ1pYhZTwZ/niGVxpbEeSrLimQr91xl8tkIfUy3MiEuEmAKxeYEgIQJiVYgd8rJiQxU+4wozWBFDPmJJjDR/c4hj+MIgP7k+VpAmDoxR+Jfm5A3NF9ucIWBHKPD+/Iy4YHl9sFYuR5Y/nAt2hS9kxg/p8PPGhw3Nhcf3D5DPHevhC+NjFTofRPl+MfKxOEWUHaXwx0352UFS3hRi57yCWMVYPCEfLki5Pp4myo+Kk+eJF2ZyQqLk+eDLQRhgAX9ABxLYUkEuyASC9r7GPngl7wkEHCAG6YAP7BXM0IhEWY8QHmNBIfgTIj7IGx7nJ+vlgwLIfx1m5Ud7kCbrLZCNyAJPIc4BoSAbXktko4TD0RLAE8gI/hGdAxsX5psNm7T/3/ND7HeGCZkwBSMZikhXG/IkBhD9icHEQKINro974554GDz6wuaEM3D3oXl89yc8JXQQHhFuEDoJd6YIisQ/ZRkOOqF+oKIWqT/WAreEmi64H+4F1aEyroPrA3vcGcZh4j4wsgtkWYq8pVWh/6T9txn8cDcUfmRHMkoeQfYlW/88UtVW1WVYRVrrH+sjzzV1uN6s4Z6f47N+qD4PnkN/9sQWYQewc9gp7AJ2FGsEdOwE1oS1YcekeHh1PZGtrqFoMbJ8sqCO4B/xhu6stJJ5jrWOvY5f5H35/OnSdzRg5YpmiAXpGfl0Jvwi8OlsIddhFN3J0ckZAOn3Rf76ehMt+24gOm3fuQV/AOB1YnBw8Mh3LuQEAPvc4ON/+DtnzYCfDmUAzh/mSsQFcg6XHgjwLaEGnzQ9YATMgDWcjxNwBZ7AFwSAEBAJ4kASmAyzz4DrXAymgVlgPigBZWA5WA3Wg01gK9gJ9oD9oBEcBafAWXAJXAE3wD24errBC9AP3oHPCIKQECpCQ/QQY8QCsUOcEAbijQQgYUgMkoSkIOmIEJEgs5AFSBlSjqxHtiA1yD7kMHIKuYB0IHeQLqQXeY18QjFUBdVCDVFLdDTKQJloKBqHTkLT0aloIVqMLkXXotXobrQBPYVeQm+gnegLdAADmDKmg5lg9hgDY2GRWDKWhomxOVgpVoFVY3VYM7zP17BOrA/7iBNxGk7H7eEKDsbjcS4+FZ+DL8HX4zvxBrwVv4Z34f34NwKVYECwI3gQ2ITxhHTCNEIJoYKwnXCIcAY+S92Ed0QiUYdoRXSDz2ISMZM4k7iEuIFYTzxJ7CA+Jg6QSCQ9kh3JixRJ4pDySSWkdaTdpBOkq6Ru0gclZSVjJSelQKVkJaFSkVKF0i6l40pXlZ4pfSarky3IHuRIMo88g7yMvI3cTL5M7iZ/pmhQrChelDhKJmU+ZS2ljnKGcp/yRllZ2VTZXTlaWaA8T3mt8l7l88pdyh9VNFVsVVgqE1UkKktVdqicVLmj8oZKpVpSfanJ1HzqUmoN9TT1IfWDKk3VQZWtylOdq1qp2qB6VfWlGlnNQo2pNlmtUK1C7YDaZbU+dbK6pTpLnaM+R71S/bD6LfUBDZrGGI1IjRyNJRq7NC5o9GiSNC01AzR5msWaWzVPaz6mYTQzGovGpS2gbaOdoXVrEbWstNhamVplWnu02rX6tTW1nbUTtKdrV2of0+7UwXQsddg62TrLdPbr3NT5NMJwBHMEf8TiEXUjro54rztS11eXr1uqW697Q/eTHl0vQC9Lb4Veo94DfVzfVj9af5r+Rv0z+n0jtUZ6juSOLB25f+RdA9TA1iDGYKbBVoM2gwFDI8MgQ5HhOsPThn1GOka+RplGq4yOG/Ua04y9jQXGq4xPGD+na9OZ9Gz6Wnorvd/EwCTYRGKyxaTd5LOplWm8aZFpvekDM4oZwyzNbJVZi1m/ubF5uPks81rzuxZkC4ZFhsUai3MW7y2tLBMtF1o2WvZY6VqxrQqtaq3uW1OtfaynWldbX7ch2jBssmw22FyxRW1dbDNsK20v26F2rnYCuw12HaMIo9xHCUdVj7plr2LPtC+wr7XvctBxCHMocmh0eDnafHTy6BWjz43+5ujimO24zfHeGM0xIWOKxjSPee1k68R1qnS6PpY6NnDs3LFNY1852znznTc633ahuYS7LHRpcfnq6uYqdq1z7XUzd0txq3K7xdBiRDGWMM67E9z93Oe6H3X/6OHqke+x3+MvT3vPLM9dnj3jrMbxx20b99jL1IvjtcWr05vuneK92bvTx8SH41Pt88jXzJfnu933GdOGmcnczXzp5+gn9jvk957lwZrNOumP+Qf5l/q3B2gGxAesD3gYaBqYHlgb2B/kEjQz6GQwITg0eEXwLbYhm8uuYfeHuIXMDmkNVQmNDV0f+ijMNkwc1hyOhoeErwy/H2ERIYxojASR7MiVkQ+irKKmRh2JJkZHRVdGP40ZEzMr5lwsLXZK7K7Yd3F+ccvi7sVbx0viWxLUEiYm1CS8T/RPLE/sHD96/Ozxl5L0kwRJTcmk5ITk7ckDEwImrJ7QPdFlYsnEm5OsJk2fdGGy/uTsycemqE3hTDmQQkhJTNmV8oUTyanmDKSyU6tS+7ks7hruC54vbxWvl+/FL+c/S/NKK0/rSfdKX5nem+GTUZHRJ2AJ1gteZQZnbsp8nxWZtSNrMDsxuz5HKScl57BQU5glbM01yp2e2yGyE5WIOqd6TF09tV8cKt6eh+RNymvK14I/8m0Sa8kvkq4C74LKgg/TEqYdmK4xXTi9bYbtjMUznhUGFv42E5/Jndkyy2TW/Flds5mzt8xB5qTOaZlrNrd4bve8oHk751PmZ83/vcixqLzo7YLEBc3FhsXzih//EvRLbYlqibjk1kLPhZsW4YsEi9oXj128bvG3Ul7pxTLHsoqyL0u4Sy7+OubXtb8OLk1b2r7MddnG5cTlwuU3V/is2FmuUV5Y/nhl+MqGVfRVpaverp6y+kKFc8WmNZQ1kjWda8PWNq0zX7d83Zf1GetvVPpV1lcZVC2uer+Bt+HqRt+NdZsMN5Vt+rRZsPn2lqAtDdWW1RVbiVsLtj7dlrDt3G+M32q2628v2/51h3BH586Yna01bjU1uwx2LatFayW1vbsn7r6yx39PU5193ZZ6nfqyvWCvZO/zfSn7bu4P3d9ygHGg7qDFwapDtEOlDUjDjIb+xozGzqakpo7DIYdbmj2bDx1xOLLjqMnRymPax5YdpxwvPj54ovDEwEnRyb5T6acet0xpuXd6/OnrrdGt7WdCz5w/G3j29DnmuRPnvc4fveBx4fBFxsXGS66XGtpc2g797vL7oXbX9obLbpebrrhfae4Y13H8qs/VU9f8r529zr5+6UbEjY6b8Tdv35p4q/M273bPnew7r+4W3P18b959wv3SB+oPKh4aPKz+w+aP+k7XzmNd/l1tj2If3XvMffziSd6TL93FT6lPK54ZP6vpceo52hvYe+X5hOfdL0QvPveV/KnxZ9VL65cH//L9q61/fH/3K/GrwddL3ui92fHW+W3LQNTAw3c57z6/L/2g92HnR8bHc58SPz37PO0L6cvarzZfm7+Ffrs/mDM4KOKIObJfAQw2NC0NgNc7AKAmAUCD+zPKBPn+T2aIfM8qQ+A/YfkeUWauANTB//foPvh3cwuAvdvg9gvqq00EIIoKQJw7QMeOHW5DezXZvlJqRLgP2Bz1NTUnFfwbk+85f8j75zOQqjqDn8//AklwfGovZBrEAAAAOGVYSWZNTQAqAAAACAABh2kABAAAAAEAAAAaAAAAAAACoAIABAAAAAEAAAA8oAMABAAAAAEAAAA8AAAAAKgXy2YAABlbSURBVHgB7Vx9bF3FlT9z330f/kjsBG9rqEUm4C0pdakDBtw2kEkxwW29xdm1FrTKlmHXUlMpEmE3K6W7kZiuojbazW6N6lbeVaQMq1TyH5EIq2xxEodMwIADLjjFBQfMZkJNYiAJdkjiZ/vde/c39/m5qFuIhE3TRJ6re898njlzfufMzJ379NjoI/YRczCKaD5ckRrwrshRzQ9qRgPzAM+o4sqMzAN8ZeI6M6p5gGdUcWVG5gG+MnGdGdU8wDOquDIj8wBfmbjOjGoe4BlVXJmReYCvTFxnRjUP8IwqrszIPMBXJq4zo5oHeEYVV2ZkHuArE9eZUc0DPKOKKzNyeQNs5xiUueY3x+J9Enb+J2n0qbTh5C4iG1+/7UKQmMlHrmc87VkiZhkxTvlgQQq3y+FEkY4UKaKQQhtY5LlcRw1pXPn6HPzI456I+VnGyeUbXK62uwi9u4sig0vH/MAxzs+X52u6du7KpzjoH0nwLrkcNq/4UDPufnUQEYPKERGkPQXFA6ZIAgjlKR/0A3UeNYhG7Hsqh/J36IzJWqIT5ow4z4mG7Rly6ffsWTslwE96OgPKbBTz922kcpoowZklSXRGnLWToCft+zxnwU+cFq7dCJ3mUwbUnNYToGfleeUAJs5MCgRBMo6nYRRZokCiL4W0heEZUMRwXfJw6T1YQs0SytFMO2AjHgoHoCehHqQBjU7gOWkD7Txp8xOPLP/hKqKXv/8r8eogkd+Z7KTtaHeUfT+8FYpeE36D7iAq2VRUW4z8n4gfyx8pohv4deIaCQ/kk/K8QTuVojQRdYm9smuM6KcP/+fR//o5UVqmri6uQ8G6SEZH0a+e6p94h+jmrtrMjWuI/pW2ClVGlNQJ4+QKJTxbOgNKGJgMRSIUDmiGMjK4Le5LGC69B2tMpCbWgGHcUcbdFBpKUOHgTamUIfq1OEpvWqJnsod39Y3A89TZ9okVRO9WnRkd3wSPbT6zdXwr8nvGmifqid7cYje9/R0AKLvt0485A/J0SoKvZjEwOR1aB8xtdLu69ccoH4wGw2p4cNOppvMEvp1n6EID0ft95+TELqKnR5/vehH9vGJes6+jPCFTPM0RMTBGi/Y2NEwjrcAVaQQePy/x49IDbKEOCy3IiCLjACUTcaQV47HyhE9Okf/zxN7HDhzHFN15oXnyBSh1MFVXXIH6Q/5QSTfqd3nNJZWge9judD8AuD8lSv6GaP+qA2NP9wIoTO4XtAPC0z5ooAMVKKLr1XW0lBN9pfc2c1sWHpsN6r0uIqrzm4uGwH+nr4s3Ep3fkG3PGaInV+174gADH8Wkj7QLDljG80sJjNM4uf9YwqUHmPIAewIrnICiRCRDgymUe8JN2SfkCTNiiXoqezKH1yE/k9qYPgFP7Ij6QgAaVUWcDRIqUC3bAtoWnWPnAHB3oipVSjRUd6zhuCI6LF7QL2lMrdw3aYl2JjSRAD/kBUT0rbJ7HrrrIFFqXWqZvx7lW2hzvKZ2Ms02oF5XqrkIM8cz9llxuANrsxrR71oYmoacoEyQCR3lgBs0vkEudbj0AEtyF9asSMVrlyUVQitJm5+ae1SPPWyJ3qp6q2OkFYq2/obUKdTvZBuDLtANbDTYCUUPUEdYjnQ7O+VmAJZl2zyspZMNk61hDTzvB13Lu1e5KToSCYH6ksWeFsqcmkB/X7G38VrQ61uWDlVWA/SaKX4Bnhv1YPLtQ78ikUspyDF8/NTJRkzZ4hl6nmPNprTIIJ8prMVIozYuIkLcGeylDpceYB1Pas7iufMEz3rcF0Tj4kK8e+1a+uSjB78HxZWyZSnkh+uiCmcQUXO0MzdARP1R10QV8huDgewKpHtpZ9AEWsd2M3hasjy1qVjDg3e/WHsEwL0u39DHUOxzbLM4gBShzlmihabMFCN91+Oi/3ZBcNEwM34WM0ETK3dAwWBqfWcB273+VDNWhEX7mDlOdEGOU86Vm4T2LeRXeJFDmgxGZEAvcfh0AbbTo/td+uFBw3+ZQoZmxjdQFCVsEskBek0eRfpXHb82R9sASL3fWrIdCmxLtCb3ABg/krn7ia5uvWbFZ/qJblW3NizfHHtoeU6Bmqgz6gS/Lr8+fYrolD0jP9hF9JQ6pJ59FB2QZ3wJImBgCDkT2AlB1MgbX75zB9HigcXDJf+IfobC9VPtrr+wkZTzZL+yGP0f6fxV5+A2yKdflYMWDIRvUqAhwY+FS+P+3WCRwaczOQygEHghAmqn7w9lzSbqzabxR7bl+RI2XWGG2umMDxNDFqsv1BLJQELtPCGLkN57ZP+qZ58gGlt7fiAL4EgmqghTYzQUVgUALCydzLjN1qr6r3XeKojWLvmrh9ZEqLeNenKYur1ROhfWAeDyaL3L9ijR5+ew6Vr+1PJn4Ilj+gMzKVFuEyppAaAOKIv05/V1tooTfa359g231xNNNY6fmliPeg2sx63FkU3YRA82e1XjaycN0b6l+48/jdcn32BfrVBPepoJckBJN2XDi00MqkUZklj3hTPoyDLjTAubNR0bg0IL4eRBjqE5C/6ccfowIz6dEB/ORNx+KO3i3A0IuYj7NqUZ0iM4ujgt4Glth/a+sBxTZH+qKQ2FRqe8rinjgAq6GDyzKOvfn6okWv3+yoe+itecGx6v0TegnLNrl14DQI5tPpZ9txz1/UQN247NU2Uqkx7FFM2H6o+3YCZXff/0CvpZrVepOgkg9SSd025N9UwEPk2P3xPd/Tim4oa9rT2n0X8TZXLgGwlWzZwBbUyWZ3YRHewwnc+jn7+94Tvjf4l2nxEVKgMaCvgy+JFCXQ6Km0m0RzQGXsOwRQx6HlhOwsunRWwIRMLVnW3wZsvg97Y3+VynKBcii4fC6880RcoBiyHE1LgBw3N1Cnk98lnxvCZ6e+3b5sRuAL8ucS45RAR1cA/mOFE1VT5xjujGwS/SsmqiZbJG3SiJFvAFYoHBGipWlout8MiaqbpgAO1aWL3ngGmD32wmylZN2SmNTRfbt2rfw5iaFTZ1SOO1jBholk/Enryc32y/JODRvZ8vXQo+QVuua6IZ9TLUG62F4YlEZRJAv737JL2Ddk+L5+QLoEmeNBmJehyj5RiXwlNgnIhDBwQpdAycM2uLPIFcDfmkqw1qXO25C96csBJ5LhD+t4Hno8yAKgxUQHRHOXabggiDwqQMyhke2KyYCR0YKP7IvuUH4LmBiTZQBQo207ZEDej66BRVg26JeK4OnvfI6pdXjhKVqhKTlPAYi12vwBq6pOFxUYZN03AJz9yP+qWRDfpQ3oDJoQcGszV1KgPAnuvvHXkRM8H/CmvfQjVMsNwdaUL9IpBE5apMFiN598t37bgDhhZWBModrLBebPHQjtqpn0GeXGtUx9BP19L9Y+YxN46sCDjGSZ5NmBgwEynUN2RDpBnH1O2o04omB7BlFhR37BAG5QrpOQqzA9jmpYjXHBfVuDluiwFoCCzjgVConPBMTlPNuAMEk52BYjneSy1OiOg1bpH+5eiR3lcBiJ9L1afLCZqjZdF60I5gMNdI9NmWRZsWtBPdqb8iln8Z/E1AF9CeVE6f55iqzZ/aKoFN9Lqba7+YBQBdk/p8A+rVwKB2gkom8EpFZ9rO7B4rJerm+83Tx53hMVFkHD/U0PGaLCZAG0SDWQGDWczLqkrAN9oabA0ANHVQHxuEnA3J3swGor62l7te7caJm3zNDKHYt0meBnX6iKTjS/H4GeIOQMZn1lrr8lxgHA+EyMZkTh6zA5jnZShYXCyYQJ6JhXWTFJHI75IjTLGIE9YlEYMPz/WQJp3gSZCuRQce7YHnjp07TxMcGR0AYhv4CPhwLxReObnF5X+V6tUt9xNdp5bQ5ywMRU+YrEA9C0/VWENF0jIFz3uoYcnKRwBchm0PngZtJhsAaG8TVL4WhmW99vQyogNrDqx6DgCNmTE7aVBumEhKN4MEfAp8cM4V91Pfebu9pQZrdcskz8LA2Cjrj2pBN3ltrA8fI8T5fveatnds/6FDjzmQmHXjwtQvfQVqcWvcCpcA5dCSSwN+J68LzD0MSqyLzE3w5obNNBc7TQ3odBywmnjqkUwkNIYDW/ZAPUrKtMGmir8rToN2bzqwqQfUr09tyfRgsNWeoT0AcE+kggyAq8kMuvrf3nHvsWYsYiVUqssE8nWxXGSx9lFalEm0M0mB6rTKfN00GKKlDXwtXw1g5OSeqX6U97D1zoOT9cmt6S1ERze8vsXm4IH8Jf1rEXueKeKQk0faGYxvvNjzGh9Zfe9d8OR0t1/lK8IuLCwP1oJfP9vIRpF/LiOLWjGOXmOeQfqkele+z1HOEyIp8jNWDKwD0BDhqT2BcgmANRHAFm5thn40nGDOgj8nnPg0FwWKeKghqEEcAQBrNwAMQzhLDTkpz2BXywEE8p8Th9WLBIXUnhh8pwUKbUwPJ4ZQ39JuB2zYHm3EKw8tHFlYW1YVv3fy1+Exb4pj9MZjju8URUegKMGIFqG+YpYQ9VRCLbBYgh9e2H9VOeqtp+6T51C+ItoYtaH8FOv163HStT6oDdtxhD3cVbp/KdHXH7/zgVtWOk8GT8iX0zk1ifhtdKu5RcGjO5c8eu0XsBsfPNbym1bIuy21x0d+wvd2Jrbhc6V+e887lujZ7x5+pA/0z+nb+m6NfnXOut2056BEPiniuPNB50kkQTnWYJe2bts3++DPnsU0Bw7qbuusMk/jASA+vUZbZ7kYhHL5WTFhJzjRLx7cu2r/E8j/h0jEiq/BlJxFupVy0QgU4icGEmsxhQ6f23UBAP37qp9M/GwX8r9PQ0E16v1bsNbfiPQm9nO3VETNtCo8QUTfi/46dSM8dTg9lmlBeTZRnUR/rNlr9Bzg7VGONgGYtanWFPKfqz/c/MIg0fGDx58c/i7RtbZKLQI/HIDwSdAKuVh8FvSee1d/ueFRotdaflr7H73g35ze6kOeKBOtiNCeNrLBRBXGtQ5nXctxxr3jG3aVQT/CszA9wok1jzeZLu6ChdYEaOHmiLt7jgIMapZBATYDxQE6BkoSg8ENT7UeKPKEm3oSHAcZyr1lJI3PMTXaQf2mIXppU784uhmKEukNYQ8qDuJTwTBoS7QiBY9gTZHCukm0m2m3dib70p2l68BvS6qvbABTY31mYEE/8uvS68pq4VFVma0L/w5UFft+DRTfkmie2gmANyaqGQwBe4EN/gpHw60eAEm0eVsyTUSnq0/753JYk8UhOnwc7UXKlgq0szhbNqhvpvgZid073cXrsLmrGFi0bUElxrkrt9mddXuNrIK2EI7MUi3pTkz59ErmNQtDkK/bYwr8yLdpFOOXJjYQoIJpdEcReSbQiEBPTl8AXPkKdI7C7AH+sCA8TggHuIM2kiAWwIACZMs4cq2nkxZr1YNPLXWbkbHs2VH3HTfqZuSm7LAnXOYPoV5bVJlAPcoF50J4IOiK3Gbkdwf9AZJefdgcK2Z90BbAEODPVTHtC1pwKEEkgnp4M1Fz0BZZ8N2a09H96MeE7WGH48OGIRmFrVRDgwC6xa/OtGKzx/ateQr1zogxfQ7lnvSFkzegHE0JfIwQ14lrkX9L4/Lem3ZCrN1Tw5Ol4KOiZVEWfDeB7wqcdNWdbT+fwTiP73/QHAF/5VHKOIPBL1NAsdJyUgSt4DOjiKl2jgBHUZFFZI7C7AC2eSmcouJg8iSUMZWOYuA21EibhEpw95OY98wZg4FXPjXSU+48LtlXAg/Ap7/ypI96Q2wPqwIQbWGPmxrLmkv9ZDXRVXLBcKoOdOvCDmcAV1UsUMl1eH1ZV9bkAFi8duHuFDy6wi/tzqC8Qi4YzXSjXtuCDveZb3HHwvoMd/15A/FHinKcTFVCoae8ZQQ+3vpkZaICHtf2RuMx0D75knzFIJ8neFpCHoWTKcLeQSXIQ/6fHfvmktWPg98Ai5cW6ot8t8RgOapP7ES9uiQvqseJ3MhTI8/A0HBCp84IlEtsA8EPRq+dx8INROQoNOT0hBkPXk5zFvw54cTzXDA4IoEXeg1BNXbPCsIS4y4/adK8GPQpfsgYjrWu7a3qk0ed56R8N7UGu1ltCEUHfbmq8UGiJSNXDy/ejTX3gX958p8PYv8ky2wR2oc8HA80Ed0e3Ys+iH5EZVCO69d4QIDtoJPsfQcIuy88Gfd/n7cD+TahUqj/b+Vt6mdr8AOCga7uA0inckVDCzrRvpU1JmAQ46ey2VAR/fcPfvFg91JsusSdD9y2Eu05SaesgCZF1uLzorxdLjc46Xq0+viSx2AY7UPDb41gPKXpzhJU9HL4KIJxHRt+q/ntLNGhv3/2vsNof5/9C/EttJvg4zSlwZdIxTOexomagryCKU9SHNg0zac+2dPJPLtgYIscghknnFMkbFAiznG4qImwhxa+xS8iVJZyoHsXdR86CIXkesJtXgeAXxYNeACSraUG9313amCyffxmopVVd2Rv6yeqVV8qqxaoTxPxb6nwSykVgg8CZxxPi/dqAwqInQzYewpnYE5pzMIgpJseYwPT7mTq2z9uMg143enWBx49CI8PRoOKcBjynmKDbrPkb09vcYb4vOjtfKkRu3V+7LPDaF+tl4jPaDdGd2qNmYHKdbnEQcjLX2d3juGAY+LowI4TMJh6rPbXoN/aqNurdwZLuxJNOKFbs6/xIIBuKvvWA6stZOKe9BQY6YgHGnydxMiHoXKnT0zhLjXr4M2aAxSMi/CjubyACsAacNXYdHEojCcoJbB3Ekf5m6Cv0MDIIAac1Mn25DIMZBdtC7eCNoYbCemS5nRr0Q9x5LhjddndDwBwM6km0S7Hp/QUaGBz0vEP5BSFHIoUUzaHfLyGmCmXVlgrrUtPyZxxipsSUxJ84DHjKL+ZblJf0vC8zPW1129E+XAuG3XB4xrDbKIcim9lHWw99gZ01j8H4LvpoHgGAOI4xrqPCDAny4TrJ9BZJBvormN3YMaoGF3cu/CbkLN6cjBbifFURi2ECv6W5Ar3UeLI1gH+WgvRq+p19YYEPwMNGMcHazB3cgJwl5aA2RL6yQON2KzCJweYo1/hgIXnaMQVU07x8YqioDBNPAGasD5PW7w2rPnFw/sYFFc7VvkBFOn1YCuynWC3wcBEDxSzZ3zXBShm+chNG28cJfqi+IL5vHQKwG8uBOopxhOgWK+sx10aVIDiZhJUoQYotijK10hLnJFJlAn8cFYhn+ekA3yRXMhLOA5Cjq3UX10HQ6mZ6hqvQb1tUVVQS0A0aso1u36inVE7Zpw1+x48uJtoVI2Z8wL5GtskC3ntlJ0w8Gx+nbxWYdPVdXP/TaDBssnRcQK/TNgTlGKcndjydWHTNXw2ex5Adx168tC+Hzi94ODHOqAxJaM+vj5pBzRaapeehtnFZhViXp+Yg0VLiRd3CcohkojTCpMN4WuLSSL5Hn9HngY9LA93vQSFllSWiAVQWIaKeopWEBWvK6aMj/yKokavkegbZfeUuY8FJaZE+cp5biCd54WK+KSBgi1ToQVVzDqKJcAEEtRgzXdU4WhUx2lixgFM3Hk6DkL0FNIwQH0BxY3UePCOJUSfa7xmbRk8ObM90xuux2sXJauSI/jY0FZWuwjp39w/vGFkEB5oBsSrCh5psKsGxXJkA4v6OmWdQTWt/ObLjeC3sKaEimEYxb3pynQr+O5MVxajfnFTUV1pH9GLtYebfwlDOiPeI/faxThxD9SDtAlBGA/mQqTdeJweZxvYHPzTnYqBtYwDYigYts8hsHK/zcCmRU/YnMZnNTop3lWxfQqnILzuawcI44CEg1rstkGvpqtNhYZieMYmkMaRIXeKdIEpPAwgtS4eadcOaQvwHeUxsAqebZBWMDwet+Eh0tjw2dgADCOUENrIBOgJedK8p7DpUZMiJNSHehMGEcKoNNrpkHIGnm/LuXsvvkqXqwUc7U3+pz7xHoOwBNjYzOhtOWzeQX30pT2LAsMUenQG5oyCSOOX2SCfo6v5n3Cs2SZtkhb10VNefyhEPtqYWF4kZxPmAuBC/3Y6wp2ATvFOQfjKaqFsSuiETCAbZRZlGHBci+JBuXwJ1SIfE6kKkMRumWPIhK87GoN1gcdPtHb5aJdPu0zhHgg2fv6WFvL4dL6jHLUsqIhj5CvI5dIKEiEwBal5LDcxUBiGcvIGCmdaAnIBprh/lMX9ctRGOeMYqYaHq4SMgSUE4x4IFnxcrxxxjVzh+AXGGTS4CfSRlwfpmWBnYrOKzCXAHy+IG+DHCW0wcAMWTqEKVAJymaexJRfaC6hHIH+24Xf5OaA4mOr4olhai/R0f4AP1zQgApGCvIjGocCvkF/gV6CFegX6UfmF8jmi/hzxuTgbwMbUR1fDRBYDiwke0KJeQWEFRRToR7P4RCVuCXBLioOXgeIgQv4+Q8TPFHDR/wcWWXEoyDttEM5Mf+94UQ/e/NF88tzm7PmHAxgDj9egjxA9BpbDQ3C5gDXLqYqcomLPKgBc8BBXaTZhml/BMx0r56Guv3jKdGYmXcZ0KHh2AcCCPIXyQn5Bvo8ar2un0KhQv9D+U6J/uCn6UxrAPNuP14D38cXzpZe7BuYBvtwRvIj88wBfREGXe/E8wJc7gheRfx7giyjoci+eB/hyR/Ai8s8DfBEFXe7F8wBf7gheRP55gC+ioMu9eB7gyx3Bi8g/D/BFFHS5F88DfLkjeBH5/w/BNrH+aVblYgAAAABJRU5ErkJggg==;fontStyle=1;fontColor=#232F3E;strokeColor=#232F3E;" parent="1" vertex="1">
                    <mxGeometry x="490" y="287" width="60" height="60" as="geometry"/>
                </mxCell>
                <mxCell id="HToY33xN73mvwbbQRyyy-18" value="SDXL 1.0" style="shape=image;verticalLabelPosition=bottom;labelBackgroundColor=none;verticalAlign=top;aspect=fixed;imageAspect=0;image=data:image/png,iVBORw0KGgoAAAANSUhEUgAAAD0AAAA8CAYAAADVPrJMAAAAAXNSR0IArs4c6QAAAIRlWElmTU0AKgAAAAgABQESAAMAAAABAAEAAAEaAAUAAAABAAAASgEbAAUAAAABAAAAUgEoAAMAAAABAAIAAIdpAAQAAAABAAAAWgAAAAAAAABIAAAAAQAAAEgAAAABAAOgAQADAAAAAQABAACgAgAEAAAAAQAAAD2gAwAEAAAAAQAAADwAAAAA/0NPHAAAAAlwSFlzAAALEwAACxMBAJqcGAAAB4ZJREFUaAXtWktsVFUY/mY6LaUtBUqhVpACFhsohfgsihgFu4AEF0ZF4wJCYmABuGOhC3WDhoULhbgygcQYYgTik8ojKiAETUUErEgBa1tKaael73Y6nfr9d3rNzNx75547c6cMtn9yc2fO4z/nO/9//teMZ4SEcUbecYZXgzsBerxIfULSE5L+H5/AuFRvn5sCDQ4AwwHAmwFkTOLbVe7u7TShbQV6gI7rwI0a4NZFoP0vYLCTgIeAkWHA4+FDzpnZQG4RUFAGzCoHZi4G8u8DJuW5ByARTh4nEVmgFzjzPlB3GAgFKU05MgJUoZFQeA6oBcWPAsu3AoU8jDtByqBPvgtcqebGqb4ZmcltVQ5MDmFqCbB0I1C2Jjl+Tmfbgr7dABzeDvS2hO8pXI7U+/3A0+8Ai593uvXEx8e9011NwMFXqcG08RlZXMRlwLLtrNywHUgcgvOZlqCD/cCXW8jQwb11vvwo/4QmJj7JEvSJ9wCx0h4anpTTGEcLpqBb6IbqjtLlOHEtVH3NQtNA6ST+Wq5GXBqLQ43ZgCnoy3RJvikcqeCOhngN7qkAFqwCps3hHeU8mSZBSn8X0E27cJOH2FoL9IgxpG3Q7IO+EbtD0ce5+DYF3XzOXkIi1UlTgbX020UMOuLR0tHOtjrg6jGg/ieg60ZExDbGwA2gBymdPkZXdndZpPXCxwQuGqFIhaUMSPhU0kA2U/ondwGdjZysoFGKSygNM4Du9QMSQ2dOjjOf93f6PKqykzsfw654CfDSPtqO47wKDFbGkgyggxI/iz+Oc/rSn8G4Os4QNQxkUPqs2lA3RxlAZzI78oiUJRixIAHbeTMsoWRDUoslUtpsMCH5xeHsyG7VAd79I28zFqdm3G1kAC0GKv9eexjif2/+AXy6Aaj9hrE5bcHdQqYJx/kDQM0nES7FBo24LzFGM+YD5c8B85bzduTYTLqD3aagg4PA/k3AEFVXCgKqpEVkLCJIxSSngO5pAVDCA5j7MA+BiUW6kClo2VzbVeDrN/jBAehIUHJYIWqARGxi7OY8yLy5igUEVlDSunLSUAMcZeIRFTZGInP4WUpJ4g0r1gEPrVe/Pg6XsR1uKWl9ZjuLCN8z1JRigk9cmew6SZJaWvYU4JFXgAdWJ8ksgem2oHWel74FLh1m0tBGCTEzss2e9IlWb6q/qH75GtbLNjqzHVYsVduVQesMG3+nZd/PO19PtXcBfIgqX1IJrNqqr5D6t2PQ+pZ6/ID/GnD9LNDArGyAlVIp+YoWOCXxFiu3AAufdDozsfEJg45ajvf8H2rA32eAlisMVNrZyzYnxX5xEi9/aJPoRC2a+Bd3QMes39XCK/A5D+HnMHAVXy8+fvXrdG3LYpil4GtKQOv7FInXHGD6yKKBj4mMHd3Pu72CQVGqyZBlublgLqOyp14jYIakV07YW+i2626ubs3LG9slBkkqJ27SMrolLUeX1eI8PS6va4XBABp0IYfeokU+bzXFebtPrDpD0XiApS/Ie+2UQn4/Bg8eRP/evQicOqU03ajeNKPDXPzoR8ASRktLKaXsPCVeloMGWT+nMbd1Z1k8HFUabmxEz/bt6D90KGqKNy8PeTt3Imfbtqj2yC9GSY/2is/9kwf32ZvA+SPcdAJS0Bf65YtRSYtfivNMU8jjhedwczPaFi3CAAHHshvp6UE3D6NjDaVlQUbQEVwk1JTn3FdMNZlx/biPv0lftuBk0tzJkPW7DwCJ4gy7i1hH+kQTihaaMIlpGgkE4K+oYDxM9YlDg9XV6N3FcqsJmar3f3dvdIJkWVIwrGfkVXcWmMzcuKCEaeICYMospoq0zpI+Skg5xErq7RagqZaVFQYqPs71xqm36XuSDGwusdiR3F+5x3Jm8Uj6+3bvRu6OHYZhRtAyREJJE64i9SyC4/7QWh9+QLXXNF9ERdL+hcBxQpk8DBUSy56dz7KygnoHjh0z25rpMsMNDQjW1cFXWhrVP7q9qDZbVdRWlUORhwck8baEnPJoPxLofSpv7kA05JlNYT4xOzF8Dd26ZWizahA5jLS2GroNkpZ9amDMj8PAINkGya3LnuB/UuapcfIWMOJRJMFiNt4ATVQtJEekIqUkx8i1mL0YePxFRRQclrlypXIdw1tYiIyyMgNzA2jxyas28ITk7nJXoq5uP3IlpOhYvgKoolo7oez16+HJsreMIrecLcxXTcgy4RCJ/1oNXKPF7usmcB6P13BEJhytmqgVYqGlWJg/A3hsHaVsFILV7Kj2oZoatC9nmTVo/iOYAM6qrETB6dOmm7YEHblKM33zbz/QWjewlZvX/LeotgLJ4WmlYYKdXsRfLNfy9+xoY6rAxTgkWFuLjqoqDDc1aTdRH6FJePNm5O/ZEy7t6B0RbyXQ+vhBJiPdHSwVEby/iX+goz/u6+KBB8JXQSscUBvkOmRP5l+mZvIHgOKwkZpGwDlTdU4uvSnp4IULCF68iBCDFd/8+fAxcPHOnh13AUegLTlRikFx3nzr7stybBp0uAM6DYA42UIypsnJOmk1dgJ0WokjhZuZkHQKDzetWE9IOq3EkcLN/AsZwyhStv/YKgAAAABJRU5ErkJggg==;fontStyle=1;fontColor=#232F3E;strokeColor=#232F3E;" parent="1" vertex="1">
                    <mxGeometry x="488.5" y="437" width="61" height="60" as="geometry"/>
                </mxCell>
                <mxCell id="HToY33xN73mvwbbQRyyy-33" value="Product Management" style="text;html=1;align=center;verticalAlign=middle;whiteSpace=wrap;rounded=0;fontStyle=1;fontSize=15;fontColor=#232F3E;strokeColor=none;" parent="1" vertex="1">
                    <mxGeometry x="120" y="-88" width="640" height="30" as="geometry"/>
                </mxCell>
                <mxCell id="2" value="&lt;font style=&quot;font-size: 25px;&quot;&gt;Open Food Facts API&lt;/font&gt;" style="rounded=1;whiteSpace=wrap;html=1;fontColor=#232F3E;strokeColor=#232F3E;" parent="1" vertex="1">
                    <mxGeometry x="290" y="-11" width="320" height="59" as="geometry"/>
                </mxCell>
                <mxCell id="3" value="Products Cache DB" style="sketch=0;points=[[0,0,0],[0.25,0,0],[0.5,0,0],[0.75,0,0],[1,0,0],[0,1,0],[0.25,1,0],[0.5,1,0],[0.75,1,0],[1,1,0],[0,0.25,0],[0,0.5,0],[0,0.75,0],[1,0.25,0],[1,0.5,0],[1,0.75,0]];outlineConnect=0;fontColor=#232F3E;fillColor=#C925D1;strokeColor=#232F3E;dashed=0;verticalLabelPosition=bottom;verticalAlign=top;align=center;html=1;fontSize=12;fontStyle=1;aspect=fixed;shape=mxgraph.aws4.resourceIcon;resIcon=mxgraph.aws4.dynamodb;" parent="1" vertex="1">
                    <mxGeometry x="620" y="59" width="78" height="78" as="geometry"/>
                </mxCell>
                <mxCell id="4" value="Products Summary Cache DB" style="sketch=0;points=[[0,0,0],[0.25,0,0],[0.5,0,0],[0.75,0,0],[1,0,0],[0,1,0],[0.25,1,0],[0.5,1,0],[0.75,1,0],[1,1,0],[0,0.25,0],[0,0.5,0],[0,0.75,0],[1,0.25,0],[1,0.5,0],[1,0.75,0]];outlineConnect=0;fontColor=#232F3E;fillColor=#C925D1;strokeColor=#232F3E;dashed=0;verticalLabelPosition=bottom;verticalAlign=top;align=center;html=1;fontSize=12;fontStyle=1;aspect=fixed;shape=mxgraph.aws4.resourceIcon;resIcon=mxgraph.aws4.dynamodb;" parent="1" vertex="1">
                    <mxGeometry x="620" y="222" width="78" height="78" as="geometry"/>
                </mxCell>
                <mxCell id="5" value="Product Images &lt;br&gt;Cache DB" style="sketch=0;points=[[0,0,0],[0.25,0,0],[0.5,0,0],[0.75,0,0],[1,0,0],[0,1,0],[0.25,1,0],[0.5,1,0],[0.75,1,0],[1,1,0],[0,0.25,0],[0,0.5,0],[0,0.75,0],[1,0.25,0],[1,0.5,0],[1,0.75,0]];outlineConnect=0;fontColor=#232F3E;fillColor=#C925D1;strokeColor=#232F3E;dashed=0;verticalLabelPosition=bottom;verticalAlign=top;align=center;html=1;fontSize=12;fontStyle=1;aspect=fixed;shape=mxgraph.aws4.resourceIcon;resIcon=mxgraph.aws4.dynamodb;" parent="1" vertex="1">
                    <mxGeometry x="620" y="379" width="78" height="78" as="geometry"/>
                </mxCell>
                <mxCell id="6" value="" style="edgeStyle=orthogonalEdgeStyle;rounded=0;orthogonalLoop=1;jettySize=auto;html=1;flowAnimation=1;exitX=1;exitY=0.5;exitDx=0;exitDy=0;exitPerimeter=0;fontColor=#232F3E;strokeColor=#232F3E;" parent="1" source="-1yFln00-OzJVzPrYYqR-9" target="5" edge="1">
                    <mxGeometry relative="1" as="geometry">
                        <mxPoint x="267.99999999999955" y="392" as="sourcePoint"/>
                        <mxPoint x="310" y="392" as="targetPoint"/>
                    </mxGeometry>
                </mxCell>
                <mxCell id="6WaH9IYS2Wj16okcBvW4-14" style="edgeStyle=orthogonalEdgeStyle;rounded=0;orthogonalLoop=1;jettySize=auto;html=1;exitX=1;exitY=0.5;exitDx=0;exitDy=0;exitPerimeter=0;flowAnimation=1;fontColor=#232F3E;strokeColor=#232F3E;" parent="1" source="6WaH9IYS2Wj16okcBvW4-6" target="6WaH9IYS2Wj16okcBvW4-10" edge="1">
                    <mxGeometry relative="1" as="geometry"/>
                </mxCell>
                <mxCell id="6WaH9IYS2Wj16okcBvW4-6" value="AWS Lambda URL&lt;br&gt;Get Ingredients in Image" style="sketch=0;points=[[0,0,0],[0.25,0,0],[0.5,0,0],[0.75,0,0],[1,0,0],[0,1,0],[0.25,1,0],[0.5,1,0],[0.75,1,0],[1,1,0],[0,0.25,0],[0,0.5,0],[0,0.75,0],[1,0.25,0],[1,0.5,0],[1,0.75,0]];outlineConnect=0;fontColor=#232F3E;fillColor=#ED7100;strokeColor=#232F3E;dashed=0;verticalLabelPosition=bottom;verticalAlign=top;align=center;html=1;fontSize=12;fontStyle=1;aspect=fixed;shape=mxgraph.aws4.resourceIcon;resIcon=mxgraph.aws4.lambda;" parent="1" vertex="1">
                    <mxGeometry x="180" y="750.75" width="78" height="78" as="geometry"/>
                </mxCell>
                <mxCell id="6WaH9IYS2Wj16okcBvW4-13" style="edgeStyle=orthogonalEdgeStyle;rounded=0;orthogonalLoop=1;jettySize=auto;html=1;flowAnimation=1;fontColor=#232F3E;strokeColor=#232F3E;entryX=0;entryY=0.5;entryDx=0;entryDy=0;" parent="1" source="6WaH9IYS2Wj16okcBvW4-10" target="9" edge="1">
                    <mxGeometry relative="1" as="geometry">
                        <Array as="points">
                            <mxPoint x="440" y="790"/>
                            <mxPoint x="440" y="983"/>
                        </Array>
                        <mxPoint x="488.99999999999955" y="723.9999999999995" as="targetPoint"/>
                    </mxGeometry>
                </mxCell>
                <mxCell id="6WaH9IYS2Wj16okcBvW4-16" style="edgeStyle=orthogonalEdgeStyle;rounded=0;orthogonalLoop=1;jettySize=auto;html=1;flowAnimation=1;fontColor=#232F3E;strokeColor=#232F3E;" parent="1" source="6WaH9IYS2Wj16okcBvW4-10" target="6WaH9IYS2Wj16okcBvW4-15" edge="1">
                    <mxGeometry relative="1" as="geometry">
                        <Array as="points">
                            <mxPoint x="440" y="790"/>
                            <mxPoint x="440" y="834"/>
                        </Array>
                    </mxGeometry>
                </mxCell>
                <mxCell id="6WaH9IYS2Wj16okcBvW4-10" value="Bedrock&lt;br&gt;" style="sketch=0;points=[[0,0,0],[0.25,0,0],[0.5,0,0],[0.75,0,0],[1,0,0],[0,1,0],[0.25,1,0],[0.5,1,0],[0.75,1,0],[1,1,0],[0,0.25,0],[0,0.5,0],[0,0.75,0],[1,0.25,0],[1,0.5,0],[1,0.75,0]];outlineConnect=0;fontColor=#232F3E;fillColor=#01A88D;strokeColor=#232F3E;dashed=0;verticalLabelPosition=bottom;verticalAlign=top;align=center;html=1;fontSize=12;fontStyle=1;aspect=fixed;shape=mxgraph.aws4.resourceIcon;resIcon=mxgraph.aws4.bedrock;" parent="1" vertex="1">
                    <mxGeometry x="301" y="750.75" width="78" height="78" as="geometry"/>
                </mxCell>
                <mxCell id="6WaH9IYS2Wj16okcBvW4-15" value="SDXL 1.0" style="shape=image;verticalLabelPosition=bottom;labelBackgroundColor=none;verticalAlign=top;aspect=fixed;imageAspect=0;image=data:image/png,iVBORw0KGgoAAAANSUhEUgAAAD0AAAA8CAYAAADVPrJMAAAAAXNSR0IArs4c6QAAAIRlWElmTU0AKgAAAAgABQESAAMAAAABAAEAAAEaAAUAAAABAAAASgEbAAUAAAABAAAAUgEoAAMAAAABAAIAAIdpAAQAAAABAAAAWgAAAAAAAABIAAAAAQAAAEgAAAABAAOgAQADAAAAAQABAACgAgAEAAAAAQAAAD2gAwAEAAAAAQAAADwAAAAA/0NPHAAAAAlwSFlzAAALEwAACxMBAJqcGAAAB4ZJREFUaAXtWktsVFUY/mY6LaUtBUqhVpACFhsohfgsihgFu4AEF0ZF4wJCYmABuGOhC3WDhoULhbgygcQYYgTik8ojKiAETUUErEgBa1tKaael73Y6nfr9d3rNzNx75547c6cMtn9yc2fO4z/nO/9//teMZ4SEcUbecYZXgzsBerxIfULSE5L+H5/AuFRvn5sCDQ4AwwHAmwFkTOLbVe7u7TShbQV6gI7rwI0a4NZFoP0vYLCTgIeAkWHA4+FDzpnZQG4RUFAGzCoHZi4G8u8DJuW5ByARTh4nEVmgFzjzPlB3GAgFKU05MgJUoZFQeA6oBcWPAsu3AoU8jDtByqBPvgtcqebGqb4ZmcltVQ5MDmFqCbB0I1C2Jjl+Tmfbgr7dABzeDvS2hO8pXI7U+/3A0+8Ai593uvXEx8e9011NwMFXqcG08RlZXMRlwLLtrNywHUgcgvOZlqCD/cCXW8jQwb11vvwo/4QmJj7JEvSJ9wCx0h4anpTTGEcLpqBb6IbqjtLlOHEtVH3NQtNA6ST+Wq5GXBqLQ43ZgCnoy3RJvikcqeCOhngN7qkAFqwCps3hHeU8mSZBSn8X0E27cJOH2FoL9IgxpG3Q7IO+EbtD0ce5+DYF3XzOXkIi1UlTgbX020UMOuLR0tHOtjrg6jGg/ieg60ZExDbGwA2gBymdPkZXdndZpPXCxwQuGqFIhaUMSPhU0kA2U/ondwGdjZysoFGKSygNM4Du9QMSQ2dOjjOf93f6PKqykzsfw654CfDSPtqO47wKDFbGkgyggxI/iz+Oc/rSn8G4Os4QNQxkUPqs2lA3RxlAZzI78oiUJRixIAHbeTMsoWRDUoslUtpsMCH5xeHsyG7VAd79I28zFqdm3G1kAC0GKv9eexjif2/+AXy6Aaj9hrE5bcHdQqYJx/kDQM0nES7FBo24LzFGM+YD5c8B85bzduTYTLqD3aagg4PA/k3AEFVXCgKqpEVkLCJIxSSngO5pAVDCA5j7MA+BiUW6kClo2VzbVeDrN/jBAehIUHJYIWqARGxi7OY8yLy5igUEVlDSunLSUAMcZeIRFTZGInP4WUpJ4g0r1gEPrVe/Pg6XsR1uKWl9ZjuLCN8z1JRigk9cmew6SZJaWvYU4JFXgAdWJ8ksgem2oHWel74FLh1m0tBGCTEzss2e9IlWb6q/qH75GtbLNjqzHVYsVduVQesMG3+nZd/PO19PtXcBfIgqX1IJrNqqr5D6t2PQ+pZ6/ID/GnD9LNDArGyAlVIp+YoWOCXxFiu3AAufdDozsfEJg45ajvf8H2rA32eAlisMVNrZyzYnxX5xEi9/aJPoRC2a+Bd3QMes39XCK/A5D+HnMHAVXy8+fvXrdG3LYpil4GtKQOv7FInXHGD6yKKBj4mMHd3Pu72CQVGqyZBlublgLqOyp14jYIakV07YW+i2626ubs3LG9slBkkqJ27SMrolLUeX1eI8PS6va4XBABp0IYfeokU+bzXFebtPrDpD0XiApS/Ie+2UQn4/Bg8eRP/evQicOqU03ajeNKPDXPzoR8ASRktLKaXsPCVeloMGWT+nMbd1Z1k8HFUabmxEz/bt6D90KGqKNy8PeTt3Imfbtqj2yC9GSY/2is/9kwf32ZvA+SPcdAJS0Bf65YtRSYtfivNMU8jjhedwczPaFi3CAAHHshvp6UE3D6NjDaVlQUbQEVwk1JTn3FdMNZlx/biPv0lftuBk0tzJkPW7DwCJ4gy7i1hH+kQTihaaMIlpGgkE4K+oYDxM9YlDg9XV6N3FcqsJmar3f3dvdIJkWVIwrGfkVXcWmMzcuKCEaeICYMospoq0zpI+Skg5xErq7RagqZaVFQYqPs71xqm36XuSDGwusdiR3F+5x3Jm8Uj6+3bvRu6OHYZhRtAyREJJE64i9SyC4/7QWh9+QLXXNF9ERdL+hcBxQpk8DBUSy56dz7KygnoHjh0z25rpMsMNDQjW1cFXWhrVP7q9qDZbVdRWlUORhwck8baEnPJoPxLofSpv7kA05JlNYT4xOzF8Dd26ZWizahA5jLS2GroNkpZ9amDMj8PAINkGya3LnuB/UuapcfIWMOJRJMFiNt4ATVQtJEekIqUkx8i1mL0YePxFRRQclrlypXIdw1tYiIyyMgNzA2jxyas28ITk7nJXoq5uP3IlpOhYvgKoolo7oez16+HJsreMIrecLcxXTcgy4RCJ/1oNXKPF7usmcB6P13BEJhytmqgVYqGlWJg/A3hsHaVsFILV7Kj2oZoatC9nmTVo/iOYAM6qrETB6dOmm7YEHblKM33zbz/QWjewlZvX/LeotgLJ4WmlYYKdXsRfLNfy9+xoY6rAxTgkWFuLjqoqDDc1aTdRH6FJePNm5O/ZEy7t6B0RbyXQ+vhBJiPdHSwVEby/iX+goz/u6+KBB8JXQSscUBvkOmRP5l+mZvIHgOKwkZpGwDlTdU4uvSnp4IULCF68iBCDFd/8+fAxcPHOnh13AUegLTlRikFx3nzr7stybBp0uAM6DYA42UIypsnJOmk1dgJ0WokjhZuZkHQKDzetWE9IOq3EkcLN/AsZwyhStv/YKgAAAABJRU5ErkJggg==;fontStyle=1;fontColor=#232F3E;strokeColor=#232F3E;" parent="1" vertex="1">
                    <mxGeometry x="490" y="804" width="61" height="60" as="geometry"/>
                </mxCell>
                <mxCell id="6WaH9IYS2Wj16okcBvW4-19" value="Recipe" style="text;html=1;align=center;verticalAlign=middle;whiteSpace=wrap;rounded=0;fontStyle=1;fontSize=15;fontColor=#232F3E;strokeColor=none;" parent="1" vertex="1">
                    <mxGeometry x="120" y="640" width="640" height="30" as="geometry"/>
                </mxCell>
                <mxCell id="6WaH9IYS2Wj16okcBvW4-20" value="S3 Image" style="sketch=0;points=[[0,0,0],[0.25,0,0],[0.5,0,0],[0.75,0,0],[1,0,0],[0,1,0],[0.25,1,0],[0.5,1,0],[0.75,1,0],[1,1,0],[0,0.25,0],[0,0.5,0],[0,0.75,0],[1,0.25,0],[1,0.5,0],[1,0.75,0]];outlineConnect=0;fontColor=#232F3E;fillColor=#7AA116;strokeColor=#232F3E;dashed=0;verticalLabelPosition=bottom;verticalAlign=top;align=center;html=1;fontSize=12;fontStyle=1;aspect=fixed;shape=mxgraph.aws4.resourceIcon;resIcon=mxgraph.aws4.s3;" parent="1" vertex="1">
                    <mxGeometry x="620" y="497" width="78" height="78" as="geometry"/>
                </mxCell>
                <mxCell id="6WaH9IYS2Wj16okcBvW4-22" value="Lambda@Edge&lt;br&gt;" style="sketch=0;outlineConnect=0;fontColor=#232F3E;gradientColor=none;fillColor=#ED7100;strokeColor=#232F3E;dashed=0;verticalLabelPosition=bottom;verticalAlign=top;align=center;html=1;fontSize=12;fontStyle=1;aspect=fixed;pointerEvents=1;shape=mxgraph.aws4.lambda_function;" parent="1" vertex="1">
                    <mxGeometry x="-142" y="335" width="48" height="48" as="geometry"/>
                </mxCell>
                <mxCell id="7" value="AWS Lambda URL&lt;br&gt;Get 3 recipe proposals" style="sketch=0;points=[[0,0,0],[0.25,0,0],[0.5,0,0],[0.75,0,0],[1,0,0],[0,1,0],[0.25,1,0],[0.5,1,0],[0.75,1,0],[1,1,0],[0,0.25,0],[0,0.5,0],[0,0.75,0],[1,0.25,0],[1,0.5,0],[1,0.75,0]];outlineConnect=0;fontColor=#232F3E;fillColor=#ED7100;strokeColor=#232F3E;dashed=0;verticalLabelPosition=bottom;verticalAlign=top;align=center;html=1;fontSize=12;fontStyle=1;aspect=fixed;shape=mxgraph.aws4.resourceIcon;resIcon=mxgraph.aws4.lambda;" parent="1" vertex="1">
                    <mxGeometry x="180" y="943.75" width="78" height="78" as="geometry"/>
                </mxCell>
                <mxCell id="8" value="Bedrock&lt;br&gt;" style="sketch=0;points=[[0,0,0],[0.25,0,0],[0.5,0,0],[0.75,0,0],[1,0,0],[0,1,0],[0.25,1,0],[0.5,1,0],[0.75,1,0],[1,1,0],[0,0.25,0],[0,0.5,0],[0,0.75,0],[1,0.25,0],[1,0.5,0],[1,0.75,0]];outlineConnect=0;fontColor=#232F3E;fillColor=#01A88D;strokeColor=#232F3E;dashed=0;verticalLabelPosition=bottom;verticalAlign=top;align=center;html=1;fontSize=12;fontStyle=1;aspect=fixed;shape=mxgraph.aws4.resourceIcon;resIcon=mxgraph.aws4.bedrock;" parent="1" vertex="1">
                    <mxGeometry x="301" y="943.75" width="78" height="78" as="geometry"/>
                </mxCell>
                <mxCell id="9" value="Claude 3 Sonnet" style="shape=image;verticalLabelPosition=bottom;labelBackgroundColor=none;verticalAlign=top;aspect=fixed;imageAspect=0;image=data:image/png,iVBORw0KGgoAAAANSUhEUgAAADwAAAA8EAYAAABqbAUxAAAMP2lDQ1BJQ0MgUHJvZmlsZQAASImVVwdYU8kWnluSkEBoAQSkhN4EESkBpITQQu8INkISIJQQA0HFjiwquBZULGBDV0UUrIDYETuLYu8LKgrKuliwK29SQNd95Xvn++be//5z5j9nzp1bBgC1kxyRKBtVByBHmC+OCfKjj09KppN6AAJQoA2cgBaHmydiRkWFAWhD57/bu5vQG9o1e6nWP/v/q2nw+HlcAJAoiFN5edwciA8CgFdxReJ8AIhS3mxavkiKYQNaYpggxIukOF2Oq6Q4VY73ynziYlgQtwKgpMLhiNMBUL0CeXoBNx1qqPZD7CjkCYQAqNEh9s7JyeVBnAKxNfQRQSzVZ6T+oJP+N83UYU0OJ30Yy+ciMyV/QZ4omzPj/yzH/7acbMlQDEvYVDLEwTHSOcO63c7KDZViFYj7hKkRkRBrQvxBwJP5Q4xSMiTB8XJ/1ICbx4I1AzoQO/I4/qEQG0AcKMyOCFPwqWmCQDbEcIWg0wX57DiIdSFexM8LiFX4bBbnxihioQ1pYhZTwZ/niGVxpbEeSrLimQr91xl8tkIfUy3MiEuEmAKxeYEgIQJiVYgd8rJiQxU+4wozWBFDPmJJjDR/c4hj+MIgP7k+VpAmDoxR+Jfm5A3NF9ucIWBHKPD+/Iy4YHl9sFYuR5Y/nAt2hS9kxg/p8PPGhw3Nhcf3D5DPHevhC+NjFTofRPl+MfKxOEWUHaXwx0352UFS3hRi57yCWMVYPCEfLki5Pp4myo+Kk+eJF2ZyQqLk+eDLQRhgAX9ABxLYUkEuyASC9r7GPngl7wkEHCAG6YAP7BXM0IhEWY8QHmNBIfgTIj7IGx7nJ+vlgwLIfx1m5Ud7kCbrLZCNyAJPIc4BoSAbXktko4TD0RLAE8gI/hGdAxsX5psNm7T/3/ND7HeGCZkwBSMZikhXG/IkBhD9icHEQKINro974554GDz6wuaEM3D3oXl89yc8JXQQHhFuEDoJd6YIisQ/ZRkOOqF+oKIWqT/WAreEmi64H+4F1aEyroPrA3vcGcZh4j4wsgtkWYq8pVWh/6T9txn8cDcUfmRHMkoeQfYlW/88UtVW1WVYRVrrH+sjzzV1uN6s4Z6f47N+qD4PnkN/9sQWYQewc9gp7AJ2FGsEdOwE1oS1YcekeHh1PZGtrqFoMbJ8sqCO4B/xhu6stJJ5jrWOvY5f5H35/OnSdzRg5YpmiAXpGfl0Jvwi8OlsIddhFN3J0ckZAOn3Rf76ehMt+24gOm3fuQV/AOB1YnBw8Mh3LuQEAPvc4ON/+DtnzYCfDmUAzh/mSsQFcg6XHgjwLaEGnzQ9YATMgDWcjxNwBZ7AFwSAEBAJ4kASmAyzz4DrXAymgVlgPigBZWA5WA3Wg01gK9gJ9oD9oBEcBafAWXAJXAE3wD24errBC9AP3oHPCIKQECpCQ/QQY8QCsUOcEAbijQQgYUgMkoSkIOmIEJEgs5AFSBlSjqxHtiA1yD7kMHIKuYB0IHeQLqQXeY18QjFUBdVCDVFLdDTKQJloKBqHTkLT0aloIVqMLkXXotXobrQBPYVeQm+gnegLdAADmDKmg5lg9hgDY2GRWDKWhomxOVgpVoFVY3VYM7zP17BOrA/7iBNxGk7H7eEKDsbjcS4+FZ+DL8HX4zvxBrwVv4Z34f34NwKVYECwI3gQ2ITxhHTCNEIJoYKwnXCIcAY+S92Ed0QiUYdoRXSDz2ISMZM4k7iEuIFYTzxJ7CA+Jg6QSCQ9kh3JixRJ4pDySSWkdaTdpBOkq6Ru0gclZSVjJSelQKVkJaFSkVKF0i6l40pXlZ4pfSarky3IHuRIMo88g7yMvI3cTL5M7iZ/pmhQrChelDhKJmU+ZS2ljnKGcp/yRllZ2VTZXTlaWaA8T3mt8l7l88pdyh9VNFVsVVgqE1UkKktVdqicVLmj8oZKpVpSfanJ1HzqUmoN9TT1IfWDKk3VQZWtylOdq1qp2qB6VfWlGlnNQo2pNlmtUK1C7YDaZbU+dbK6pTpLnaM+R71S/bD6LfUBDZrGGI1IjRyNJRq7NC5o9GiSNC01AzR5msWaWzVPaz6mYTQzGovGpS2gbaOdoXVrEbWstNhamVplWnu02rX6tTW1nbUTtKdrV2of0+7UwXQsddg62TrLdPbr3NT5NMJwBHMEf8TiEXUjro54rztS11eXr1uqW697Q/eTHl0vQC9Lb4Veo94DfVzfVj9af5r+Rv0z+n0jtUZ6juSOLB25f+RdA9TA1iDGYKbBVoM2gwFDI8MgQ5HhOsPThn1GOka+RplGq4yOG/Ua04y9jQXGq4xPGD+na9OZ9Gz6Wnorvd/EwCTYRGKyxaTd5LOplWm8aZFpvekDM4oZwyzNbJVZi1m/ubF5uPks81rzuxZkC4ZFhsUai3MW7y2tLBMtF1o2WvZY6VqxrQqtaq3uW1OtfaynWldbX7ch2jBssmw22FyxRW1dbDNsK20v26F2rnYCuw12HaMIo9xHCUdVj7plr2LPtC+wr7XvctBxCHMocmh0eDnafHTy6BWjz43+5ujimO24zfHeGM0xIWOKxjSPee1k68R1qnS6PpY6NnDs3LFNY1852znznTc633ahuYS7LHRpcfnq6uYqdq1z7XUzd0txq3K7xdBiRDGWMM67E9z93Oe6H3X/6OHqke+x3+MvT3vPLM9dnj3jrMbxx20b99jL1IvjtcWr05vuneK92bvTx8SH41Pt88jXzJfnu933GdOGmcnczXzp5+gn9jvk957lwZrNOumP+Qf5l/q3B2gGxAesD3gYaBqYHlgb2B/kEjQz6GQwITg0eEXwLbYhm8uuYfeHuIXMDmkNVQmNDV0f+ijMNkwc1hyOhoeErwy/H2ERIYxojASR7MiVkQ+irKKmRh2JJkZHRVdGP40ZEzMr5lwsLXZK7K7Yd3F+ccvi7sVbx0viWxLUEiYm1CS8T/RPLE/sHD96/Ozxl5L0kwRJTcmk5ITk7ckDEwImrJ7QPdFlYsnEm5OsJk2fdGGy/uTsycemqE3hTDmQQkhJTNmV8oUTyanmDKSyU6tS+7ks7hruC54vbxWvl+/FL+c/S/NKK0/rSfdKX5nem+GTUZHRJ2AJ1gteZQZnbsp8nxWZtSNrMDsxuz5HKScl57BQU5glbM01yp2e2yGyE5WIOqd6TF09tV8cKt6eh+RNymvK14I/8m0Sa8kvkq4C74LKgg/TEqYdmK4xXTi9bYbtjMUznhUGFv42E5/Jndkyy2TW/Flds5mzt8xB5qTOaZlrNrd4bve8oHk751PmZ83/vcixqLzo7YLEBc3FhsXzih//EvRLbYlqibjk1kLPhZsW4YsEi9oXj128bvG3Ul7pxTLHsoqyL0u4Sy7+OubXtb8OLk1b2r7MddnG5cTlwuU3V/is2FmuUV5Y/nhl+MqGVfRVpaverp6y+kKFc8WmNZQ1kjWda8PWNq0zX7d83Zf1GetvVPpV1lcZVC2uer+Bt+HqRt+NdZsMN5Vt+rRZsPn2lqAtDdWW1RVbiVsLtj7dlrDt3G+M32q2628v2/51h3BH586Yna01bjU1uwx2LatFayW1vbsn7r6yx39PU5193ZZ6nfqyvWCvZO/zfSn7bu4P3d9ygHGg7qDFwapDtEOlDUjDjIb+xozGzqakpo7DIYdbmj2bDx1xOLLjqMnRymPax5YdpxwvPj54ovDEwEnRyb5T6acet0xpuXd6/OnrrdGt7WdCz5w/G3j29DnmuRPnvc4fveBx4fBFxsXGS66XGtpc2g797vL7oXbX9obLbpebrrhfae4Y13H8qs/VU9f8r529zr5+6UbEjY6b8Tdv35p4q/M273bPnew7r+4W3P18b959wv3SB+oPKh4aPKz+w+aP+k7XzmNd/l1tj2If3XvMffziSd6TL93FT6lPK54ZP6vpceo52hvYe+X5hOfdL0QvPveV/KnxZ9VL65cH//L9q61/fH/3K/GrwddL3ui92fHW+W3LQNTAw3c57z6/L/2g92HnR8bHc58SPz37PO0L6cvarzZfm7+Ffrs/mDM4KOKIObJfAQw2NC0NgNc7AKAmAUCD+zPKBPn+T2aIfM8qQ+A/YfkeUWauANTB//foPvh3cwuAvdvg9gvqq00EIIoKQJw7QMeOHW5DezXZvlJqRLgP2Bz1NTUnFfwbk+85f8j75zOQqjqDn8//AklwfGovZBrEAAAAOGVYSWZNTQAqAAAACAABh2kABAAAAAEAAAAaAAAAAAACoAIABAAAAAEAAAA8oAMABAAAAAEAAAA8AAAAAKgXy2YAABlbSURBVHgB7Vx9bF3FlT9z330f/kjsBG9rqEUm4C0pdakDBtw2kEkxwW29xdm1FrTKlmHXUlMpEmE3K6W7kZiuojbazW6N6lbeVaQMq1TyH5EIq2xxEodMwIADLjjFBQfMZkJNYiAJdkjiZ/vde/c39/m5qFuIhE3TRJ6re898njlzfufMzJ379NjoI/YRczCKaD5ckRrwrshRzQ9qRgPzAM+o4sqMzAN8ZeI6M6p5gGdUcWVG5gG+MnGdGdU8wDOquDIj8wBfmbjOjGoe4BlVXJmReYCvTFxnRjUP8IwqrszIPMBXJq4zo5oHeEYVV2ZkHuArE9eZUc0DPKOKKzNyeQNs5xiUueY3x+J9Enb+J2n0qbTh5C4iG1+/7UKQmMlHrmc87VkiZhkxTvlgQQq3y+FEkY4UKaKQQhtY5LlcRw1pXPn6HPzI456I+VnGyeUbXK62uwi9u4sig0vH/MAxzs+X52u6du7KpzjoH0nwLrkcNq/4UDPufnUQEYPKERGkPQXFA6ZIAgjlKR/0A3UeNYhG7Hsqh/J36IzJWqIT5ow4z4mG7Rly6ffsWTslwE96OgPKbBTz922kcpoowZklSXRGnLWToCft+zxnwU+cFq7dCJ3mUwbUnNYToGfleeUAJs5MCgRBMo6nYRRZokCiL4W0heEZUMRwXfJw6T1YQs0SytFMO2AjHgoHoCehHqQBjU7gOWkD7Txp8xOPLP/hKqKXv/8r8eogkd+Z7KTtaHeUfT+8FYpeE36D7iAq2VRUW4z8n4gfyx8pohv4deIaCQ/kk/K8QTuVojQRdYm9smuM6KcP/+fR//o5UVqmri6uQ8G6SEZH0a+e6p94h+jmrtrMjWuI/pW2ClVGlNQJ4+QKJTxbOgNKGJgMRSIUDmiGMjK4Le5LGC69B2tMpCbWgGHcUcbdFBpKUOHgTamUIfq1OEpvWqJnsod39Y3A89TZ9okVRO9WnRkd3wSPbT6zdXwr8nvGmifqid7cYje9/R0AKLvt0485A/J0SoKvZjEwOR1aB8xtdLu69ccoH4wGw2p4cNOppvMEvp1n6EID0ft95+TELqKnR5/vehH9vGJes6+jPCFTPM0RMTBGi/Y2NEwjrcAVaQQePy/x49IDbKEOCy3IiCLjACUTcaQV47HyhE9Okf/zxN7HDhzHFN15oXnyBSh1MFVXXIH6Q/5QSTfqd3nNJZWge9judD8AuD8lSv6GaP+qA2NP9wIoTO4XtAPC0z5ooAMVKKLr1XW0lBN9pfc2c1sWHpsN6r0uIqrzm4uGwH+nr4s3Ep3fkG3PGaInV+174gADH8Wkj7QLDljG80sJjNM4uf9YwqUHmPIAewIrnICiRCRDgymUe8JN2SfkCTNiiXoqezKH1yE/k9qYPgFP7Ij6QgAaVUWcDRIqUC3bAtoWnWPnAHB3oipVSjRUd6zhuCI6LF7QL2lMrdw3aYl2JjSRAD/kBUT0rbJ7HrrrIFFqXWqZvx7lW2hzvKZ2Ms02oF5XqrkIM8cz9llxuANrsxrR71oYmoacoEyQCR3lgBs0vkEudbj0AEtyF9asSMVrlyUVQitJm5+ae1SPPWyJ3qp6q2OkFYq2/obUKdTvZBuDLtANbDTYCUUPUEdYjnQ7O+VmAJZl2zyspZMNk61hDTzvB13Lu1e5KToSCYH6ksWeFsqcmkB/X7G38VrQ61uWDlVWA/SaKX4Bnhv1YPLtQ78ikUspyDF8/NTJRkzZ4hl6nmPNprTIIJ8prMVIozYuIkLcGeylDpceYB1Pas7iufMEz3rcF0Tj4kK8e+1a+uSjB78HxZWyZSnkh+uiCmcQUXO0MzdARP1R10QV8huDgewKpHtpZ9AEWsd2M3hasjy1qVjDg3e/WHsEwL0u39DHUOxzbLM4gBShzlmihabMFCN91+Oi/3ZBcNEwM34WM0ETK3dAwWBqfWcB273+VDNWhEX7mDlOdEGOU86Vm4T2LeRXeJFDmgxGZEAvcfh0AbbTo/td+uFBw3+ZQoZmxjdQFCVsEskBek0eRfpXHb82R9sASL3fWrIdCmxLtCb3ABg/krn7ia5uvWbFZ/qJblW3NizfHHtoeU6Bmqgz6gS/Lr8+fYrolD0jP9hF9JQ6pJ59FB2QZ3wJImBgCDkT2AlB1MgbX75zB9HigcXDJf+IfobC9VPtrr+wkZTzZL+yGP0f6fxV5+A2yKdflYMWDIRvUqAhwY+FS+P+3WCRwaczOQygEHghAmqn7w9lzSbqzabxR7bl+RI2XWGG2umMDxNDFqsv1BLJQELtPCGLkN57ZP+qZ58gGlt7fiAL4EgmqghTYzQUVgUALCydzLjN1qr6r3XeKojWLvmrh9ZEqLeNenKYur1ROhfWAeDyaL3L9ijR5+ew6Vr+1PJn4Ilj+gMzKVFuEyppAaAOKIv05/V1tooTfa359g231xNNNY6fmliPeg2sx63FkU3YRA82e1XjaycN0b6l+48/jdcn32BfrVBPepoJckBJN2XDi00MqkUZklj3hTPoyDLjTAubNR0bg0IL4eRBjqE5C/6ccfowIz6dEB/ORNx+KO3i3A0IuYj7NqUZ0iM4ujgt4Glth/a+sBxTZH+qKQ2FRqe8rinjgAq6GDyzKOvfn6okWv3+yoe+itecGx6v0TegnLNrl14DQI5tPpZ9txz1/UQN247NU2Uqkx7FFM2H6o+3YCZXff/0CvpZrVepOgkg9SSd025N9UwEPk2P3xPd/Tim4oa9rT2n0X8TZXLgGwlWzZwBbUyWZ3YRHewwnc+jn7+94Tvjf4l2nxEVKgMaCvgy+JFCXQ6Km0m0RzQGXsOwRQx6HlhOwsunRWwIRMLVnW3wZsvg97Y3+VynKBcii4fC6880RcoBiyHE1LgBw3N1Cnk98lnxvCZ6e+3b5sRuAL8ucS45RAR1cA/mOFE1VT5xjujGwS/SsmqiZbJG3SiJFvAFYoHBGipWlout8MiaqbpgAO1aWL3ngGmD32wmylZN2SmNTRfbt2rfw5iaFTZ1SOO1jBholk/Enryc32y/JODRvZ8vXQo+QVuua6IZ9TLUG62F4YlEZRJAv737JL2Ddk+L5+QLoEmeNBmJehyj5RiXwlNgnIhDBwQpdAycM2uLPIFcDfmkqw1qXO25C96csBJ5LhD+t4Hno8yAKgxUQHRHOXabggiDwqQMyhke2KyYCR0YKP7IvuUH4LmBiTZQBQo207ZEDej66BRVg26JeK4OnvfI6pdXjhKVqhKTlPAYi12vwBq6pOFxUYZN03AJz9yP+qWRDfpQ3oDJoQcGszV1KgPAnuvvHXkRM8H/CmvfQjVMsNwdaUL9IpBE5apMFiN598t37bgDhhZWBModrLBebPHQjtqpn0GeXGtUx9BP19L9Y+YxN46sCDjGSZ5NmBgwEynUN2RDpBnH1O2o04omB7BlFhR37BAG5QrpOQqzA9jmpYjXHBfVuDluiwFoCCzjgVConPBMTlPNuAMEk52BYjneSy1OiOg1bpH+5eiR3lcBiJ9L1afLCZqjZdF60I5gMNdI9NmWRZsWtBPdqb8iln8Z/E1AF9CeVE6f55iqzZ/aKoFN9Lqba7+YBQBdk/p8A+rVwKB2gkom8EpFZ9rO7B4rJerm+83Tx53hMVFkHD/U0PGaLCZAG0SDWQGDWczLqkrAN9oabA0ANHVQHxuEnA3J3swGor62l7te7caJm3zNDKHYt0meBnX6iKTjS/H4GeIOQMZn1lrr8lxgHA+EyMZkTh6zA5jnZShYXCyYQJ6JhXWTFJHI75IjTLGIE9YlEYMPz/WQJp3gSZCuRQce7YHnjp07TxMcGR0AYhv4CPhwLxReObnF5X+V6tUt9xNdp5bQ5ywMRU+YrEA9C0/VWENF0jIFz3uoYcnKRwBchm0PngZtJhsAaG8TVL4WhmW99vQyogNrDqx6DgCNmTE7aVBumEhKN4MEfAp8cM4V91Pfebu9pQZrdcskz8LA2Cjrj2pBN3ltrA8fI8T5fveatnds/6FDjzmQmHXjwtQvfQVqcWvcCpcA5dCSSwN+J68LzD0MSqyLzE3w5obNNBc7TQ3odBywmnjqkUwkNIYDW/ZAPUrKtMGmir8rToN2bzqwqQfUr09tyfRgsNWeoT0AcE+kggyAq8kMuvrf3nHvsWYsYiVUqssE8nWxXGSx9lFalEm0M0mB6rTKfN00GKKlDXwtXw1g5OSeqX6U97D1zoOT9cmt6S1ERze8vsXm4IH8Jf1rEXueKeKQk0faGYxvvNjzGh9Zfe9d8OR0t1/lK8IuLCwP1oJfP9vIRpF/LiOLWjGOXmOeQfqkele+z1HOEyIp8jNWDKwD0BDhqT2BcgmANRHAFm5thn40nGDOgj8nnPg0FwWKeKghqEEcAQBrNwAMQzhLDTkpz2BXywEE8p8Th9WLBIXUnhh8pwUKbUwPJ4ZQ39JuB2zYHm3EKw8tHFlYW1YVv3fy1+Exb4pj9MZjju8URUegKMGIFqG+YpYQ9VRCLbBYgh9e2H9VOeqtp+6T51C+ItoYtaH8FOv163HStT6oDdtxhD3cVbp/KdHXH7/zgVtWOk8GT8iX0zk1ifhtdKu5RcGjO5c8eu0XsBsfPNbym1bIuy21x0d+wvd2Jrbhc6V+e887lujZ7x5+pA/0z+nb+m6NfnXOut2056BEPiniuPNB50kkQTnWYJe2bts3++DPnsU0Bw7qbuusMk/jASA+vUZbZ7kYhHL5WTFhJzjRLx7cu2r/E8j/h0jEiq/BlJxFupVy0QgU4icGEmsxhQ6f23UBAP37qp9M/GwX8r9PQ0E16v1bsNbfiPQm9nO3VETNtCo8QUTfi/46dSM8dTg9lmlBeTZRnUR/rNlr9Bzg7VGONgGYtanWFPKfqz/c/MIg0fGDx58c/i7RtbZKLQI/HIDwSdAKuVh8FvSee1d/ueFRotdaflr7H73g35ze6kOeKBOtiNCeNrLBRBXGtQ5nXctxxr3jG3aVQT/CszA9wok1jzeZLu6ChdYEaOHmiLt7jgIMapZBATYDxQE6BkoSg8ENT7UeKPKEm3oSHAcZyr1lJI3PMTXaQf2mIXppU784uhmKEukNYQ8qDuJTwTBoS7QiBY9gTZHCukm0m2m3dib70p2l68BvS6qvbABTY31mYEE/8uvS68pq4VFVma0L/w5UFft+DRTfkmie2gmANyaqGQwBe4EN/gpHw60eAEm0eVsyTUSnq0/753JYk8UhOnwc7UXKlgq0szhbNqhvpvgZid073cXrsLmrGFi0bUElxrkrt9mddXuNrIK2EI7MUi3pTkz59ErmNQtDkK/bYwr8yLdpFOOXJjYQoIJpdEcReSbQiEBPTl8AXPkKdI7C7AH+sCA8TggHuIM2kiAWwIACZMs4cq2nkxZr1YNPLXWbkbHs2VH3HTfqZuSm7LAnXOYPoV5bVJlAPcoF50J4IOiK3Gbkdwf9AZJefdgcK2Z90BbAEODPVTHtC1pwKEEkgnp4M1Fz0BZZ8N2a09H96MeE7WGH48OGIRmFrVRDgwC6xa/OtGKzx/ateQr1zogxfQ7lnvSFkzegHE0JfIwQ14lrkX9L4/Lem3ZCrN1Tw5Ol4KOiZVEWfDeB7wqcdNWdbT+fwTiP73/QHAF/5VHKOIPBL1NAsdJyUgSt4DOjiKl2jgBHUZFFZI7C7AC2eSmcouJg8iSUMZWOYuA21EibhEpw95OY98wZg4FXPjXSU+48LtlXAg/Ap7/ypI96Q2wPqwIQbWGPmxrLmkv9ZDXRVXLBcKoOdOvCDmcAV1UsUMl1eH1ZV9bkAFi8duHuFDy6wi/tzqC8Qi4YzXSjXtuCDveZb3HHwvoMd/15A/FHinKcTFVCoae8ZQQ+3vpkZaICHtf2RuMx0D75knzFIJ8neFpCHoWTKcLeQSXIQ/6fHfvmktWPg98Ai5cW6ot8t8RgOapP7ES9uiQvqseJ3MhTI8/A0HBCp84IlEtsA8EPRq+dx8INROQoNOT0hBkPXk5zFvw54cTzXDA4IoEXeg1BNXbPCsIS4y4/adK8GPQpfsgYjrWu7a3qk0ed56R8N7UGu1ltCEUHfbmq8UGiJSNXDy/ejTX3gX958p8PYv8ky2wR2oc8HA80Ed0e3Ys+iH5EZVCO69d4QIDtoJPsfQcIuy88Gfd/n7cD+TahUqj/b+Vt6mdr8AOCga7uA0inckVDCzrRvpU1JmAQ46ey2VAR/fcPfvFg91JsusSdD9y2Eu05SaesgCZF1uLzorxdLjc46Xq0+viSx2AY7UPDb41gPKXpzhJU9HL4KIJxHRt+q/ntLNGhv3/2vsNof5/9C/EttJvg4zSlwZdIxTOexomagryCKU9SHNg0zac+2dPJPLtgYIscghknnFMkbFAiznG4qImwhxa+xS8iVJZyoHsXdR86CIXkesJtXgeAXxYNeACSraUG9313amCyffxmopVVd2Rv6yeqVV8qqxaoTxPxb6nwSykVgg8CZxxPi/dqAwqInQzYewpnYE5pzMIgpJseYwPT7mTq2z9uMg143enWBx49CI8PRoOKcBjynmKDbrPkb09vcYb4vOjtfKkRu3V+7LPDaF+tl4jPaDdGd2qNmYHKdbnEQcjLX2d3juGAY+LowI4TMJh6rPbXoN/aqNurdwZLuxJNOKFbs6/xIIBuKvvWA6stZOKe9BQY6YgHGnydxMiHoXKnT0zhLjXr4M2aAxSMi/CjubyACsAacNXYdHEojCcoJbB3Ekf5m6Cv0MDIIAac1Mn25DIMZBdtC7eCNoYbCemS5nRr0Q9x5LhjddndDwBwM6km0S7Hp/QUaGBz0vEP5BSFHIoUUzaHfLyGmCmXVlgrrUtPyZxxipsSUxJ84DHjKL+ZblJf0vC8zPW1129E+XAuG3XB4xrDbKIcim9lHWw99gZ01j8H4LvpoHgGAOI4xrqPCDAny4TrJ9BZJBvormN3YMaoGF3cu/CbkLN6cjBbifFURi2ECv6W5Ar3UeLI1gH+WgvRq+p19YYEPwMNGMcHazB3cgJwl5aA2RL6yQON2KzCJweYo1/hgIXnaMQVU07x8YqioDBNPAGasD5PW7w2rPnFw/sYFFc7VvkBFOn1YCuynWC3wcBEDxSzZ3zXBShm+chNG28cJfqi+IL5vHQKwG8uBOopxhOgWK+sx10aVIDiZhJUoQYotijK10hLnJFJlAn8cFYhn+ekA3yRXMhLOA5Cjq3UX10HQ6mZ6hqvQb1tUVVQS0A0aso1u36inVE7Zpw1+x48uJtoVI2Z8wL5GtskC3ntlJ0w8Gx+nbxWYdPVdXP/TaDBssnRcQK/TNgTlGKcndjydWHTNXw2ex5Adx168tC+Hzi94ODHOqAxJaM+vj5pBzRaapeehtnFZhViXp+Yg0VLiRd3CcohkojTCpMN4WuLSSL5Hn9HngY9LA93vQSFllSWiAVQWIaKeopWEBWvK6aMj/yKokavkegbZfeUuY8FJaZE+cp5biCd54WK+KSBgi1ToQVVzDqKJcAEEtRgzXdU4WhUx2lixgFM3Hk6DkL0FNIwQH0BxY3UePCOJUSfa7xmbRk8ObM90xuux2sXJauSI/jY0FZWuwjp39w/vGFkEB5oBsSrCh5psKsGxXJkA4v6OmWdQTWt/ObLjeC3sKaEimEYxb3pynQr+O5MVxajfnFTUV1pH9GLtYebfwlDOiPeI/faxThxD9SDtAlBGA/mQqTdeJweZxvYHPzTnYqBtYwDYigYts8hsHK/zcCmRU/YnMZnNTop3lWxfQqnILzuawcI44CEg1rstkGvpqtNhYZieMYmkMaRIXeKdIEpPAwgtS4eadcOaQvwHeUxsAqebZBWMDwet+Eh0tjw2dgADCOUENrIBOgJedK8p7DpUZMiJNSHehMGEcKoNNrpkHIGnm/LuXsvvkqXqwUc7U3+pz7xHoOwBNjYzOhtOWzeQX30pT2LAsMUenQG5oyCSOOX2SCfo6v5n3Cs2SZtkhb10VNefyhEPtqYWF4kZxPmAuBC/3Y6wp2ATvFOQfjKaqFsSuiETCAbZRZlGHBci+JBuXwJ1SIfE6kKkMRumWPIhK87GoN1gcdPtHb5aJdPu0zhHgg2fv6WFvL4dL6jHLUsqIhj5CvI5dIKEiEwBal5LDcxUBiGcvIGCmdaAnIBprh/lMX9ctRGOeMYqYaHq4SMgSUE4x4IFnxcrxxxjVzh+AXGGTS4CfSRlwfpmWBnYrOKzCXAHy+IG+DHCW0wcAMWTqEKVAJymaexJRfaC6hHIH+24Xf5OaA4mOr4olhai/R0f4AP1zQgApGCvIjGocCvkF/gV6CFegX6UfmF8jmi/hzxuTgbwMbUR1fDRBYDiwke0KJeQWEFRRToR7P4RCVuCXBLioOXgeIgQv4+Q8TPFHDR/wcWWXEoyDttEM5Mf+94UQ/e/NF88tzm7PmHAxgDj9egjxA9BpbDQ3C5gDXLqYqcomLPKgBc8BBXaTZhml/BMx0r56Guv3jKdGYmXcZ0KHh2AcCCPIXyQn5Bvo8ar2un0KhQv9D+U6J/uCn6UxrAPNuP14D38cXzpZe7BuYBvtwRvIj88wBfREGXe/E8wJc7gheRfx7giyjoci+eB/hyR/Ai8s8DfBEFXe7F8wBf7gheRP55gC+ioMu9eB7gyx3Bi8g/D/BFFHS5F88DfLkjeBH5/w/BNrH+aVblYgAAAABJRU5ErkJggg==;fontStyle=1;fontColor=#232F3E;strokeColor=#232F3E;" parent="1" vertex="1">
                    <mxGeometry x="488.5" y="952.75" width="60" height="60" as="geometry"/>
                </mxCell>
                <mxCell id="10" value="AWS Lambda URL&lt;br&gt;Get Step by Step recipe" style="sketch=0;points=[[0,0,0],[0.25,0,0],[0.5,0,0],[0.75,0,0],[1,0,0],[0,1,0],[0.25,1,0],[0.5,1,0],[0.75,1,0],[1,1,0],[0,0.25,0],[0,0.5,0],[0,0.75,0],[1,0.25,0],[1,0.5,0],[1,0.75,0]];outlineConnect=0;fontColor=#232F3E;fillColor=#ED7100;strokeColor=#232F3E;dashed=0;verticalLabelPosition=bottom;verticalAlign=top;align=center;html=1;fontSize=12;fontStyle=1;aspect=fixed;shape=mxgraph.aws4.resourceIcon;resIcon=mxgraph.aws4.lambda;" parent="1" vertex="1">
                    <mxGeometry x="180" y="1127" width="78" height="78" as="geometry"/>
                </mxCell>
                <mxCell id="11" value="Bedrock&lt;br&gt;" style="sketch=0;points=[[0,0,0],[0.25,0,0],[0.5,0,0],[0.75,0,0],[1,0,0],[0,1,0],[0.25,1,0],[0.5,1,0],[0.75,1,0],[1,1,0],[0,0.25,0],[0,0.5,0],[0,0.75,0],[1,0.25,0],[1,0.5,0],[1,0.75,0]];outlineConnect=0;fontColor=#232F3E;fillColor=#01A88D;strokeColor=#232F3E;dashed=0;verticalLabelPosition=bottom;verticalAlign=top;align=center;html=1;fontSize=12;fontStyle=1;aspect=fixed;shape=mxgraph.aws4.resourceIcon;resIcon=mxgraph.aws4.bedrock;" parent="1" vertex="1">
                    <mxGeometry x="301" y="1127" width="78" height="78" as="geometry"/>
                </mxCell>
                <mxCell id="12" style="edgeStyle=orthogonalEdgeStyle;rounded=0;orthogonalLoop=1;jettySize=auto;html=1;flowAnimation=1;fontColor=#232F3E;strokeColor=#232F3E;exitX=1;exitY=0.5;exitDx=0;exitDy=0;exitPerimeter=0;entryX=0;entryY=0.5;entryDx=0;entryDy=0;entryPerimeter=0;" parent="1" source="HToY33xN73mvwbbQRyyy-6" target="7" edge="1">
                    <mxGeometry relative="1" as="geometry">
                        <mxPoint x="-69" y="180.0526315789475" as="sourcePoint"/>
                        <Array as="points">
                            <mxPoint x="-79" y="170"/>
                            <mxPoint x="150" y="170"/>
                            <mxPoint x="150" y="983"/>
                        </Array>
                        <mxPoint x="190" y="753" as="targetPoint"/>
                    </mxGeometry>
                </mxCell>
                <mxCell id="14" style="edgeStyle=orthogonalEdgeStyle;rounded=0;orthogonalLoop=1;jettySize=auto;html=1;flowAnimation=1;fontColor=#232F3E;strokeColor=#232F3E;entryX=0;entryY=0.5;entryDx=0;entryDy=0;entryPerimeter=0;" parent="1" target="10" edge="1">
                    <mxGeometry relative="1" as="geometry">
                        <mxPoint x="-80" y="170" as="sourcePoint"/>
                        <Array as="points">
                            <mxPoint x="150" y="170"/>
                            <mxPoint x="150" y="1166"/>
                        </Array>
                        <mxPoint x="190" y="945.75" as="targetPoint"/>
                    </mxGeometry>
                </mxCell>
                <mxCell id="15" style="edgeStyle=orthogonalEdgeStyle;rounded=0;orthogonalLoop=1;jettySize=auto;html=1;exitX=1;exitY=0.5;exitDx=0;exitDy=0;exitPerimeter=0;flowAnimation=1;fontColor=#232F3E;strokeColor=#232F3E;" parent="1" source="7" edge="1">
                    <mxGeometry relative="1" as="geometry">
                        <mxPoint x="280" y="982.22" as="sourcePoint"/>
                        <mxPoint x="300" y="982" as="targetPoint"/>
                    </mxGeometry>
                </mxCell>
                <mxCell id="17" style="edgeStyle=orthogonalEdgeStyle;rounded=0;orthogonalLoop=1;jettySize=auto;html=1;exitX=1;exitY=0.5;exitDx=0;exitDy=0;exitPerimeter=0;flowAnimation=1;fontColor=#232F3E;strokeColor=#232F3E;" parent="1" source="10" edge="1">
                    <mxGeometry relative="1" as="geometry">
                        <mxPoint x="280" y="1165.47" as="sourcePoint"/>
                        <mxPoint x="300" y="1165" as="targetPoint"/>
                    </mxGeometry>
                </mxCell>
                <mxCell id="18" value="Claude 3 Haiku" style="shape=image;verticalLabelPosition=bottom;labelBackgroundColor=none;verticalAlign=top;aspect=fixed;imageAspect=0;image=data:image/png,iVBORw0KGgoAAAANSUhEUgAAADwAAAA8EAYAAABqbAUxAAAMP2lDQ1BJQ0MgUHJvZmlsZQAASImVVwdYU8kWnluSkEBoAQSkhN4EESkBpITQQu8INkISIJQQA0HFjiwquBZULGBDV0UUrIDYETuLYu8LKgrKuliwK29SQNd95Xvn++be//5z5j9nzp1bBgC1kxyRKBtVByBHmC+OCfKjj09KppN6AAJQoA2cgBaHmydiRkWFAWhD57/bu5vQG9o1e6nWP/v/q2nw+HlcAJAoiFN5edwciA8CgFdxReJ8AIhS3mxavkiKYQNaYpggxIukOF2Oq6Q4VY73ynziYlgQtwKgpMLhiNMBUL0CeXoBNx1qqPZD7CjkCYQAqNEh9s7JyeVBnAKxNfQRQSzVZ6T+oJP+N83UYU0OJ30Yy+ciMyV/QZ4omzPj/yzH/7acbMlQDEvYVDLEwTHSOcO63c7KDZViFYj7hKkRkRBrQvxBwJP5Q4xSMiTB8XJ/1ICbx4I1AzoQO/I4/qEQG0AcKMyOCFPwqWmCQDbEcIWg0wX57DiIdSFexM8LiFX4bBbnxihioQ1pYhZTwZ/niGVxpbEeSrLimQr91xl8tkIfUy3MiEuEmAKxeYEgIQJiVYgd8rJiQxU+4wozWBFDPmJJjDR/c4hj+MIgP7k+VpAmDoxR+Jfm5A3NF9ucIWBHKPD+/Iy4YHl9sFYuR5Y/nAt2hS9kxg/p8PPGhw3Nhcf3D5DPHevhC+NjFTofRPl+MfKxOEWUHaXwx0352UFS3hRi57yCWMVYPCEfLki5Pp4myo+Kk+eJF2ZyQqLk+eDLQRhgAX9ABxLYUkEuyASC9r7GPngl7wkEHCAG6YAP7BXM0IhEWY8QHmNBIfgTIj7IGx7nJ+vlgwLIfx1m5Ud7kCbrLZCNyAJPIc4BoSAbXktko4TD0RLAE8gI/hGdAxsX5psNm7T/3/ND7HeGCZkwBSMZikhXG/IkBhD9icHEQKINro974554GDz6wuaEM3D3oXl89yc8JXQQHhFuEDoJd6YIisQ/ZRkOOqF+oKIWqT/WAreEmi64H+4F1aEyroPrA3vcGcZh4j4wsgtkWYq8pVWh/6T9txn8cDcUfmRHMkoeQfYlW/88UtVW1WVYRVrrH+sjzzV1uN6s4Z6f47N+qD4PnkN/9sQWYQewc9gp7AJ2FGsEdOwE1oS1YcekeHh1PZGtrqFoMbJ8sqCO4B/xhu6stJJ5jrWOvY5f5H35/OnSdzRg5YpmiAXpGfl0Jvwi8OlsIddhFN3J0ckZAOn3Rf76ehMt+24gOm3fuQV/AOB1YnBw8Mh3LuQEAPvc4ON/+DtnzYCfDmUAzh/mSsQFcg6XHgjwLaEGnzQ9YATMgDWcjxNwBZ7AFwSAEBAJ4kASmAyzz4DrXAymgVlgPigBZWA5WA3Wg01gK9gJ9oD9oBEcBafAWXAJXAE3wD24errBC9AP3oHPCIKQECpCQ/QQY8QCsUOcEAbijQQgYUgMkoSkIOmIEJEgs5AFSBlSjqxHtiA1yD7kMHIKuYB0IHeQLqQXeY18QjFUBdVCDVFLdDTKQJloKBqHTkLT0aloIVqMLkXXotXobrQBPYVeQm+gnegLdAADmDKmg5lg9hgDY2GRWDKWhomxOVgpVoFVY3VYM7zP17BOrA/7iBNxGk7H7eEKDsbjcS4+FZ+DL8HX4zvxBrwVv4Z34f34NwKVYECwI3gQ2ITxhHTCNEIJoYKwnXCIcAY+S92Ed0QiUYdoRXSDz2ISMZM4k7iEuIFYTzxJ7CA+Jg6QSCQ9kh3JixRJ4pDySSWkdaTdpBOkq6Ru0gclZSVjJSelQKVkJaFSkVKF0i6l40pXlZ4pfSarky3IHuRIMo88g7yMvI3cTL5M7iZ/pmhQrChelDhKJmU+ZS2ljnKGcp/yRllZ2VTZXTlaWaA8T3mt8l7l88pdyh9VNFVsVVgqE1UkKktVdqicVLmj8oZKpVpSfanJ1HzqUmoN9TT1IfWDKk3VQZWtylOdq1qp2qB6VfWlGlnNQo2pNlmtUK1C7YDaZbU+dbK6pTpLnaM+R71S/bD6LfUBDZrGGI1IjRyNJRq7NC5o9GiSNC01AzR5msWaWzVPaz6mYTQzGovGpS2gbaOdoXVrEbWstNhamVplWnu02rX6tTW1nbUTtKdrV2of0+7UwXQsddg62TrLdPbr3NT5NMJwBHMEf8TiEXUjro54rztS11eXr1uqW697Q/eTHl0vQC9Lb4Veo94DfVzfVj9af5r+Rv0z+n0jtUZ6juSOLB25f+RdA9TA1iDGYKbBVoM2gwFDI8MgQ5HhOsPThn1GOka+RplGq4yOG/Ua04y9jQXGq4xPGD+na9OZ9Gz6Wnorvd/EwCTYRGKyxaTd5LOplWm8aZFpvekDM4oZwyzNbJVZi1m/ubF5uPks81rzuxZkC4ZFhsUai3MW7y2tLBMtF1o2WvZY6VqxrQqtaq3uW1OtfaynWldbX7ch2jBssmw22FyxRW1dbDNsK20v26F2rnYCuw12HaMIo9xHCUdVj7plr2LPtC+wr7XvctBxCHMocmh0eDnafHTy6BWjz43+5ujimO24zfHeGM0xIWOKxjSPee1k68R1qnS6PpY6NnDs3LFNY1852znznTc633ahuYS7LHRpcfnq6uYqdq1z7XUzd0txq3K7xdBiRDGWMM67E9z93Oe6H3X/6OHqke+x3+MvT3vPLM9dnj3jrMbxx20b99jL1IvjtcWr05vuneK92bvTx8SH41Pt88jXzJfnu933GdOGmcnczXzp5+gn9jvk957lwZrNOumP+Qf5l/q3B2gGxAesD3gYaBqYHlgb2B/kEjQz6GQwITg0eEXwLbYhm8uuYfeHuIXMDmkNVQmNDV0f+ijMNkwc1hyOhoeErwy/H2ERIYxojASR7MiVkQ+irKKmRh2JJkZHRVdGP40ZEzMr5lwsLXZK7K7Yd3F+ccvi7sVbx0viWxLUEiYm1CS8T/RPLE/sHD96/Ozxl5L0kwRJTcmk5ITk7ckDEwImrJ7QPdFlYsnEm5OsJk2fdGGy/uTsycemqE3hTDmQQkhJTNmV8oUTyanmDKSyU6tS+7ks7hruC54vbxWvl+/FL+c/S/NKK0/rSfdKX5nem+GTUZHRJ2AJ1gteZQZnbsp8nxWZtSNrMDsxuz5HKScl57BQU5glbM01yp2e2yGyE5WIOqd6TF09tV8cKt6eh+RNymvK14I/8m0Sa8kvkq4C74LKgg/TEqYdmK4xXTi9bYbtjMUznhUGFv42E5/Jndkyy2TW/Flds5mzt8xB5qTOaZlrNrd4bve8oHk751PmZ83/vcixqLzo7YLEBc3FhsXzih//EvRLbYlqibjk1kLPhZsW4YsEi9oXj128bvG3Ul7pxTLHsoqyL0u4Sy7+OubXtb8OLk1b2r7MddnG5cTlwuU3V/is2FmuUV5Y/nhl+MqGVfRVpaverp6y+kKFc8WmNZQ1kjWda8PWNq0zX7d83Zf1GetvVPpV1lcZVC2uer+Bt+HqRt+NdZsMN5Vt+rRZsPn2lqAtDdWW1RVbiVsLtj7dlrDt3G+M32q2628v2/51h3BH586Yna01bjU1uwx2LatFayW1vbsn7r6yx39PU5193ZZ6nfqyvWCvZO/zfSn7bu4P3d9ygHGg7qDFwapDtEOlDUjDjIb+xozGzqakpo7DIYdbmj2bDx1xOLLjqMnRymPax5YdpxwvPj54ovDEwEnRyb5T6acet0xpuXd6/OnrrdGt7WdCz5w/G3j29DnmuRPnvc4fveBx4fBFxsXGS66XGtpc2g797vL7oXbX9obLbpebrrhfae4Y13H8qs/VU9f8r529zr5+6UbEjY6b8Tdv35p4q/M273bPnew7r+4W3P18b959wv3SB+oPKh4aPKz+w+aP+k7XzmNd/l1tj2If3XvMffziSd6TL93FT6lPK54ZP6vpceo52hvYe+X5hOfdL0QvPveV/KnxZ9VL65cH//L9q61/fH/3K/GrwddL3ui92fHW+W3LQNTAw3c57z6/L/2g92HnR8bHc58SPz37PO0L6cvarzZfm7+Ffrs/mDM4KOKIObJfAQw2NC0NgNc7AKAmAUCD+zPKBPn+T2aIfM8qQ+A/YfkeUWauANTB//foPvh3cwuAvdvg9gvqq00EIIoKQJw7QMeOHW5DezXZvlJqRLgP2Bz1NTUnFfwbk+85f8j75zOQqjqDn8//AklwfGovZBrEAAAAOGVYSWZNTQAqAAAACAABh2kABAAAAAEAAAAaAAAAAAACoAIABAAAAAEAAAA8oAMABAAAAAEAAAA8AAAAAKgXy2YAABlbSURBVHgB7Vx9bF3FlT9z330f/kjsBG9rqEUm4C0pdakDBtw2kEkxwW29xdm1FrTKlmHXUlMpEmE3K6W7kZiuojbazW6N6lbeVaQMq1TyH5EIq2xxEodMwIADLjjFBQfMZkJNYiAJdkjiZ/vde/c39/m5qFuIhE3TRJ6re898njlzfufMzJ379NjoI/YRczCKaD5ckRrwrshRzQ9qRgPzAM+o4sqMzAN8ZeI6M6p5gGdUcWVG5gG+MnGdGdU8wDOquDIj8wBfmbjOjGoe4BlVXJmReYCvTFxnRjUP8IwqrszIPMBXJq4zo5oHeEYVV2ZkHuArE9eZUc0DPKOKKzNyeQNs5xiUueY3x+J9Enb+J2n0qbTh5C4iG1+/7UKQmMlHrmc87VkiZhkxTvlgQQq3y+FEkY4UKaKQQhtY5LlcRw1pXPn6HPzI456I+VnGyeUbXK62uwi9u4sig0vH/MAxzs+X52u6du7KpzjoH0nwLrkcNq/4UDPufnUQEYPKERGkPQXFA6ZIAgjlKR/0A3UeNYhG7Hsqh/J36IzJWqIT5ow4z4mG7Rly6ffsWTslwE96OgPKbBTz922kcpoowZklSXRGnLWToCft+zxnwU+cFq7dCJ3mUwbUnNYToGfleeUAJs5MCgRBMo6nYRRZokCiL4W0heEZUMRwXfJw6T1YQs0SytFMO2AjHgoHoCehHqQBjU7gOWkD7Txp8xOPLP/hKqKXv/8r8eogkd+Z7KTtaHeUfT+8FYpeE36D7iAq2VRUW4z8n4gfyx8pohv4deIaCQ/kk/K8QTuVojQRdYm9smuM6KcP/+fR//o5UVqmri6uQ8G6SEZH0a+e6p94h+jmrtrMjWuI/pW2ClVGlNQJ4+QKJTxbOgNKGJgMRSIUDmiGMjK4Le5LGC69B2tMpCbWgGHcUcbdFBpKUOHgTamUIfq1OEpvWqJnsod39Y3A89TZ9okVRO9WnRkd3wSPbT6zdXwr8nvGmifqid7cYje9/R0AKLvt0485A/J0SoKvZjEwOR1aB8xtdLu69ccoH4wGw2p4cNOppvMEvp1n6EID0ft95+TELqKnR5/vehH9vGJes6+jPCFTPM0RMTBGi/Y2NEwjrcAVaQQePy/x49IDbKEOCy3IiCLjACUTcaQV47HyhE9Okf/zxN7HDhzHFN15oXnyBSh1MFVXXIH6Q/5QSTfqd3nNJZWge9judD8AuD8lSv6GaP+qA2NP9wIoTO4XtAPC0z5ooAMVKKLr1XW0lBN9pfc2c1sWHpsN6r0uIqrzm4uGwH+nr4s3Ep3fkG3PGaInV+174gADH8Wkj7QLDljG80sJjNM4uf9YwqUHmPIAewIrnICiRCRDgymUe8JN2SfkCTNiiXoqezKH1yE/k9qYPgFP7Ij6QgAaVUWcDRIqUC3bAtoWnWPnAHB3oipVSjRUd6zhuCI6LF7QL2lMrdw3aYl2JjSRAD/kBUT0rbJ7HrrrIFFqXWqZvx7lW2hzvKZ2Ms02oF5XqrkIM8cz9llxuANrsxrR71oYmoacoEyQCR3lgBs0vkEudbj0AEtyF9asSMVrlyUVQitJm5+ae1SPPWyJ3qp6q2OkFYq2/obUKdTvZBuDLtANbDTYCUUPUEdYjnQ7O+VmAJZl2zyspZMNk61hDTzvB13Lu1e5KToSCYH6ksWeFsqcmkB/X7G38VrQ61uWDlVWA/SaKX4Bnhv1YPLtQ78ikUspyDF8/NTJRkzZ4hl6nmPNprTIIJ8prMVIozYuIkLcGeylDpceYB1Pas7iufMEz3rcF0Tj4kK8e+1a+uSjB78HxZWyZSnkh+uiCmcQUXO0MzdARP1R10QV8huDgewKpHtpZ9AEWsd2M3hasjy1qVjDg3e/WHsEwL0u39DHUOxzbLM4gBShzlmihabMFCN91+Oi/3ZBcNEwM34WM0ETK3dAwWBqfWcB273+VDNWhEX7mDlOdEGOU86Vm4T2LeRXeJFDmgxGZEAvcfh0AbbTo/td+uFBw3+ZQoZmxjdQFCVsEskBek0eRfpXHb82R9sASL3fWrIdCmxLtCb3ABg/krn7ia5uvWbFZ/qJblW3NizfHHtoeU6Bmqgz6gS/Lr8+fYrolD0jP9hF9JQ6pJ59FB2QZ3wJImBgCDkT2AlB1MgbX75zB9HigcXDJf+IfobC9VPtrr+wkZTzZL+yGP0f6fxV5+A2yKdflYMWDIRvUqAhwY+FS+P+3WCRwaczOQygEHghAmqn7w9lzSbqzabxR7bl+RI2XWGG2umMDxNDFqsv1BLJQELtPCGLkN57ZP+qZ58gGlt7fiAL4EgmqghTYzQUVgUALCydzLjN1qr6r3XeKojWLvmrh9ZEqLeNenKYur1ROhfWAeDyaL3L9ijR5+ew6Vr+1PJn4Ilj+gMzKVFuEyppAaAOKIv05/V1tooTfa359g231xNNNY6fmliPeg2sx63FkU3YRA82e1XjaycN0b6l+48/jdcn32BfrVBPepoJckBJN2XDi00MqkUZklj3hTPoyDLjTAubNR0bg0IL4eRBjqE5C/6ccfowIz6dEB/ORNx+KO3i3A0IuYj7NqUZ0iM4ujgt4Glth/a+sBxTZH+qKQ2FRqe8rinjgAq6GDyzKOvfn6okWv3+yoe+itecGx6v0TegnLNrl14DQI5tPpZ9txz1/UQN247NU2Uqkx7FFM2H6o+3YCZXff/0CvpZrVepOgkg9SSd025N9UwEPk2P3xPd/Tim4oa9rT2n0X8TZXLgGwlWzZwBbUyWZ3YRHewwnc+jn7+94Tvjf4l2nxEVKgMaCvgy+JFCXQ6Km0m0RzQGXsOwRQx6HlhOwsunRWwIRMLVnW3wZsvg97Y3+VynKBcii4fC6880RcoBiyHE1LgBw3N1Cnk98lnxvCZ6e+3b5sRuAL8ucS45RAR1cA/mOFE1VT5xjujGwS/SsmqiZbJG3SiJFvAFYoHBGipWlout8MiaqbpgAO1aWL3ngGmD32wmylZN2SmNTRfbt2rfw5iaFTZ1SOO1jBholk/Enryc32y/JODRvZ8vXQo+QVuua6IZ9TLUG62F4YlEZRJAv737JL2Ddk+L5+QLoEmeNBmJehyj5RiXwlNgnIhDBwQpdAycM2uLPIFcDfmkqw1qXO25C96csBJ5LhD+t4Hno8yAKgxUQHRHOXabggiDwqQMyhke2KyYCR0YKP7IvuUH4LmBiTZQBQo207ZEDej66BRVg26JeK4OnvfI6pdXjhKVqhKTlPAYi12vwBq6pOFxUYZN03AJz9yP+qWRDfpQ3oDJoQcGszV1KgPAnuvvHXkRM8H/CmvfQjVMsNwdaUL9IpBE5apMFiN598t37bgDhhZWBModrLBebPHQjtqpn0GeXGtUx9BP19L9Y+YxN46sCDjGSZ5NmBgwEynUN2RDpBnH1O2o04omB7BlFhR37BAG5QrpOQqzA9jmpYjXHBfVuDluiwFoCCzjgVConPBMTlPNuAMEk52BYjneSy1OiOg1bpH+5eiR3lcBiJ9L1afLCZqjZdF60I5gMNdI9NmWRZsWtBPdqb8iln8Z/E1AF9CeVE6f55iqzZ/aKoFN9Lqba7+YBQBdk/p8A+rVwKB2gkom8EpFZ9rO7B4rJerm+83Tx53hMVFkHD/U0PGaLCZAG0SDWQGDWczLqkrAN9oabA0ANHVQHxuEnA3J3swGor62l7te7caJm3zNDKHYt0meBnX6iKTjS/H4GeIOQMZn1lrr8lxgHA+EyMZkTh6zA5jnZShYXCyYQJ6JhXWTFJHI75IjTLGIE9YlEYMPz/WQJp3gSZCuRQce7YHnjp07TxMcGR0AYhv4CPhwLxReObnF5X+V6tUt9xNdp5bQ5ywMRU+YrEA9C0/VWENF0jIFz3uoYcnKRwBchm0PngZtJhsAaG8TVL4WhmW99vQyogNrDqx6DgCNmTE7aVBumEhKN4MEfAp8cM4V91Pfebu9pQZrdcskz8LA2Cjrj2pBN3ltrA8fI8T5fveatnds/6FDjzmQmHXjwtQvfQVqcWvcCpcA5dCSSwN+J68LzD0MSqyLzE3w5obNNBc7TQ3odBywmnjqkUwkNIYDW/ZAPUrKtMGmir8rToN2bzqwqQfUr09tyfRgsNWeoT0AcE+kggyAq8kMuvrf3nHvsWYsYiVUqssE8nWxXGSx9lFalEm0M0mB6rTKfN00GKKlDXwtXw1g5OSeqX6U97D1zoOT9cmt6S1ERze8vsXm4IH8Jf1rEXueKeKQk0faGYxvvNjzGh9Zfe9d8OR0t1/lK8IuLCwP1oJfP9vIRpF/LiOLWjGOXmOeQfqkele+z1HOEyIp8jNWDKwD0BDhqT2BcgmANRHAFm5thn40nGDOgj8nnPg0FwWKeKghqEEcAQBrNwAMQzhLDTkpz2BXywEE8p8Th9WLBIXUnhh8pwUKbUwPJ4ZQ39JuB2zYHm3EKw8tHFlYW1YVv3fy1+Exb4pj9MZjju8URUegKMGIFqG+YpYQ9VRCLbBYgh9e2H9VOeqtp+6T51C+ItoYtaH8FOv163HStT6oDdtxhD3cVbp/KdHXH7/zgVtWOk8GT8iX0zk1ifhtdKu5RcGjO5c8eu0XsBsfPNbym1bIuy21x0d+wvd2Jrbhc6V+e887lujZ7x5+pA/0z+nb+m6NfnXOut2056BEPiniuPNB50kkQTnWYJe2bts3++DPnsU0Bw7qbuusMk/jASA+vUZbZ7kYhHL5WTFhJzjRLx7cu2r/E8j/h0jEiq/BlJxFupVy0QgU4icGEmsxhQ6f23UBAP37qp9M/GwX8r9PQ0E16v1bsNbfiPQm9nO3VETNtCo8QUTfi/46dSM8dTg9lmlBeTZRnUR/rNlr9Bzg7VGONgGYtanWFPKfqz/c/MIg0fGDx58c/i7RtbZKLQI/HIDwSdAKuVh8FvSee1d/ueFRotdaflr7H73g35ze6kOeKBOtiNCeNrLBRBXGtQ5nXctxxr3jG3aVQT/CszA9wok1jzeZLu6ChdYEaOHmiLt7jgIMapZBATYDxQE6BkoSg8ENT7UeKPKEm3oSHAcZyr1lJI3PMTXaQf2mIXppU784uhmKEukNYQ8qDuJTwTBoS7QiBY9gTZHCukm0m2m3dib70p2l68BvS6qvbABTY31mYEE/8uvS68pq4VFVma0L/w5UFft+DRTfkmie2gmANyaqGQwBe4EN/gpHw60eAEm0eVsyTUSnq0/753JYk8UhOnwc7UXKlgq0szhbNqhvpvgZid073cXrsLmrGFi0bUElxrkrt9mddXuNrIK2EI7MUi3pTkz59ErmNQtDkK/bYwr8yLdpFOOXJjYQoIJpdEcReSbQiEBPTl8AXPkKdI7C7AH+sCA8TggHuIM2kiAWwIACZMs4cq2nkxZr1YNPLXWbkbHs2VH3HTfqZuSm7LAnXOYPoV5bVJlAPcoF50J4IOiK3Gbkdwf9AZJefdgcK2Z90BbAEODPVTHtC1pwKEEkgnp4M1Fz0BZZ8N2a09H96MeE7WGH48OGIRmFrVRDgwC6xa/OtGKzx/ateQr1zogxfQ7lnvSFkzegHE0JfIwQ14lrkX9L4/Lem3ZCrN1Tw5Ol4KOiZVEWfDeB7wqcdNWdbT+fwTiP73/QHAF/5VHKOIPBL1NAsdJyUgSt4DOjiKl2jgBHUZFFZI7C7AC2eSmcouJg8iSUMZWOYuA21EibhEpw95OY98wZg4FXPjXSU+48LtlXAg/Ap7/ypI96Q2wPqwIQbWGPmxrLmkv9ZDXRVXLBcKoOdOvCDmcAV1UsUMl1eH1ZV9bkAFi8duHuFDy6wi/tzqC8Qi4YzXSjXtuCDveZb3HHwvoMd/15A/FHinKcTFVCoae8ZQQ+3vpkZaICHtf2RuMx0D75knzFIJ8neFpCHoWTKcLeQSXIQ/6fHfvmktWPg98Ai5cW6ot8t8RgOapP7ES9uiQvqseJ3MhTI8/A0HBCp84IlEtsA8EPRq+dx8INROQoNOT0hBkPXk5zFvw54cTzXDA4IoEXeg1BNXbPCsIS4y4/adK8GPQpfsgYjrWu7a3qk0ed56R8N7UGu1ltCEUHfbmq8UGiJSNXDy/ejTX3gX958p8PYv8ky2wR2oc8HA80Ed0e3Ys+iH5EZVCO69d4QIDtoJPsfQcIuy88Gfd/n7cD+TahUqj/b+Vt6mdr8AOCga7uA0inckVDCzrRvpU1JmAQ46ey2VAR/fcPfvFg91JsusSdD9y2Eu05SaesgCZF1uLzorxdLjc46Xq0+viSx2AY7UPDb41gPKXpzhJU9HL4KIJxHRt+q/ntLNGhv3/2vsNof5/9C/EttJvg4zSlwZdIxTOexomagryCKU9SHNg0zac+2dPJPLtgYIscghknnFMkbFAiznG4qImwhxa+xS8iVJZyoHsXdR86CIXkesJtXgeAXxYNeACSraUG9313amCyffxmopVVd2Rv6yeqVV8qqxaoTxPxb6nwSykVgg8CZxxPi/dqAwqInQzYewpnYE5pzMIgpJseYwPT7mTq2z9uMg143enWBx49CI8PRoOKcBjynmKDbrPkb09vcYb4vOjtfKkRu3V+7LPDaF+tl4jPaDdGd2qNmYHKdbnEQcjLX2d3juGAY+LowI4TMJh6rPbXoN/aqNurdwZLuxJNOKFbs6/xIIBuKvvWA6stZOKe9BQY6YgHGnydxMiHoXKnT0zhLjXr4M2aAxSMi/CjubyACsAacNXYdHEojCcoJbB3Ekf5m6Cv0MDIIAac1Mn25DIMZBdtC7eCNoYbCemS5nRr0Q9x5LhjddndDwBwM6km0S7Hp/QUaGBz0vEP5BSFHIoUUzaHfLyGmCmXVlgrrUtPyZxxipsSUxJ84DHjKL+ZblJf0vC8zPW1129E+XAuG3XB4xrDbKIcim9lHWw99gZ01j8H4LvpoHgGAOI4xrqPCDAny4TrJ9BZJBvormN3YMaoGF3cu/CbkLN6cjBbifFURi2ECv6W5Ar3UeLI1gH+WgvRq+p19YYEPwMNGMcHazB3cgJwl5aA2RL6yQON2KzCJweYo1/hgIXnaMQVU07x8YqioDBNPAGasD5PW7w2rPnFw/sYFFc7VvkBFOn1YCuynWC3wcBEDxSzZ3zXBShm+chNG28cJfqi+IL5vHQKwG8uBOopxhOgWK+sx10aVIDiZhJUoQYotijK10hLnJFJlAn8cFYhn+ekA3yRXMhLOA5Cjq3UX10HQ6mZ6hqvQb1tUVVQS0A0aso1u36inVE7Zpw1+x48uJtoVI2Z8wL5GtskC3ntlJ0w8Gx+nbxWYdPVdXP/TaDBssnRcQK/TNgTlGKcndjydWHTNXw2ex5Adx168tC+Hzi94ODHOqAxJaM+vj5pBzRaapeehtnFZhViXp+Yg0VLiRd3CcohkojTCpMN4WuLSSL5Hn9HngY9LA93vQSFllSWiAVQWIaKeopWEBWvK6aMj/yKokavkegbZfeUuY8FJaZE+cp5biCd54WK+KSBgi1ToQVVzDqKJcAEEtRgzXdU4WhUx2lixgFM3Hk6DkL0FNIwQH0BxY3UePCOJUSfa7xmbRk8ObM90xuux2sXJauSI/jY0FZWuwjp39w/vGFkEB5oBsSrCh5psKsGxXJkA4v6OmWdQTWt/ObLjeC3sKaEimEYxb3pynQr+O5MVxajfnFTUV1pH9GLtYebfwlDOiPeI/faxThxD9SDtAlBGA/mQqTdeJweZxvYHPzTnYqBtYwDYigYts8hsHK/zcCmRU/YnMZnNTop3lWxfQqnILzuawcI44CEg1rstkGvpqtNhYZieMYmkMaRIXeKdIEpPAwgtS4eadcOaQvwHeUxsAqebZBWMDwet+Eh0tjw2dgADCOUENrIBOgJedK8p7DpUZMiJNSHehMGEcKoNNrpkHIGnm/LuXsvvkqXqwUc7U3+pz7xHoOwBNjYzOhtOWzeQX30pT2LAsMUenQG5oyCSOOX2SCfo6v5n3Cs2SZtkhb10VNefyhEPtqYWF4kZxPmAuBC/3Y6wp2ATvFOQfjKaqFsSuiETCAbZRZlGHBci+JBuXwJ1SIfE6kKkMRumWPIhK87GoN1gcdPtHb5aJdPu0zhHgg2fv6WFvL4dL6jHLUsqIhj5CvI5dIKEiEwBal5LDcxUBiGcvIGCmdaAnIBprh/lMX9ctRGOeMYqYaHq4SMgSUE4x4IFnxcrxxxjVzh+AXGGTS4CfSRlwfpmWBnYrOKzCXAHy+IG+DHCW0wcAMWTqEKVAJymaexJRfaC6hHIH+24Xf5OaA4mOr4olhai/R0f4AP1zQgApGCvIjGocCvkF/gV6CFegX6UfmF8jmi/hzxuTgbwMbUR1fDRBYDiwke0KJeQWEFRRToR7P4RCVuCXBLioOXgeIgQv4+Q8TPFHDR/wcWWXEoyDttEM5Mf+94UQ/e/NF88tzm7PmHAxgDj9egjxA9BpbDQ3C5gDXLqYqcomLPKgBc8BBXaTZhml/BMx0r56Guv3jKdGYmXcZ0KHh2AcCCPIXyQn5Bvo8ar2un0KhQv9D+U6J/uCn6UxrAPNuP14D38cXzpZe7BuYBvtwRvIj88wBfREGXe/E8wJc7gheRfx7giyjoci+eB/hyR/Ai8s8DfBEFXe7F8wBf7gheRP55gC+ioMu9eB7gyx3Bi8g/D/BFFHS5F88DfLkjeBH5/w/BNrH+aVblYgAAAABJRU5ErkJggg==;fontStyle=1;fontColor=#232F3E;strokeColor=#232F3E;" parent="1" vertex="1">
                    <mxGeometry x="488.5" y="1136" width="60" height="60" as="geometry"/>
                </mxCell>
                <mxCell id="19" value="" style="edgeStyle=orthogonalEdgeStyle;rounded=0;orthogonalLoop=1;jettySize=auto;html=1;flowAnimation=1;entryX=0;entryY=0.5;entryDx=0;entryDy=0;exitX=1;exitY=0.5;exitDx=0;exitDy=0;exitPerimeter=0;fontColor=#232F3E;strokeColor=#232F3E;" parent="1" source="8" target="9" edge="1">
                    <mxGeometry relative="1" as="geometry">
                        <mxPoint x="280" y="1075.45" as="sourcePoint"/>
                        <mxPoint x="642" y="1076.95" as="targetPoint"/>
                    </mxGeometry>
                </mxCell>
                <mxCell id="20" value="" style="edgeStyle=orthogonalEdgeStyle;rounded=0;orthogonalLoop=1;jettySize=auto;html=1;flowAnimation=1;exitX=1;exitY=0.5;exitDx=0;exitDy=0;exitPerimeter=0;fontColor=#232F3E;strokeColor=#232F3E;" parent="1" source="11" target="18" edge="1">
                    <mxGeometry relative="1" as="geometry">
                        <mxPoint x="385.25" y="1107" as="sourcePoint"/>
                        <mxPoint x="494.75" y="1107" as="targetPoint"/>
                    </mxGeometry>
                </mxCell>
                <mxCell id="22" value="" style="edgeStyle=orthogonalEdgeStyle;rounded=0;orthogonalLoop=1;jettySize=auto;html=1;flowAnimation=1;fontColor=#232F3E;strokeColor=#232F3E;exitX=0.5;exitY=1;exitDx=0;exitDy=0;exitPerimeter=0;startArrow=classic;startFill=1;" parent="1" source="HToY33xN73mvwbbQRyyy-6" target="6WaH9IYS2Wj16okcBvW4-22" edge="1">
                    <mxGeometry relative="1" as="geometry">
                        <mxPoint x="-147" y="186.49999999999955" as="targetPoint"/>
                        <Array as="points"/>
                        <mxPoint x="-244" y="186.49999999999955" as="sourcePoint"/>
                    </mxGeometry>
                </mxCell>
                <mxCell id="24" value="" style="edgeStyle=orthogonalEdgeStyle;rounded=0;orthogonalLoop=1;jettySize=auto;html=1;flowAnimation=1;fontColor=#232F3E;strokeColor=#232F3E;startArrow=classic;startFill=1;" parent="1" source="6WaH9IYS2Wj16okcBvW4-22" target="HToY33xN73mvwbbQRyyy-8" edge="1">
                    <mxGeometry relative="1" as="geometry">
                        <mxPoint x="-30" y="442" as="targetPoint"/>
                        <Array as="points"/>
                        <mxPoint x="-30" y="359.9999999999998" as="sourcePoint"/>
                    </mxGeometry>
                </mxCell>
            </root>
        </mxGraphModel>
    </diagram>
</mxfile>